<mxfile host="65bd71144e" modified="2020-12-30T11:09:37.644Z" agent="5.0 (Windows NT 10.0; Win64; x64) AppleWebKit/537.36 (KHTML, like Gecko) Code/1.52.1 Chrome/83.0.4103.122 Electron/9.3.5 Safari/537.36" etag="x8OvZpowX4BQdA1AgPRk" version="13.10.0" type="embed">
    <diagram name="Page-1" id="7a6c530e-6e37-e111-ec74-82921da8cc10">
        <mxGraphModel dx="1499" dy="1019" grid="1" gridSize="10" guides="1" tooltips="1" connect="1" arrows="1" fold="1" page="1" pageScale="1.5" pageWidth="1169" pageHeight="826" background="none" math="0" shadow="0">
            <root>
                <mxCell id="0" style=";html=1;"/>
                <mxCell id="1" style=";html=1;" parent="0"/>
                <mxCell id="Ch8A1ACjPwMTOh7i7YPF-20" value="" style="rounded=0;whiteSpace=wrap;html=1;fillColor=#121242;" parent="1" vertex="1">
                    <mxGeometry x="490" y="130" width="470" height="620" as="geometry"/>
                </mxCell>
                <mxCell id="Ch8A1ACjPwMTOh7i7YPF-7" value="" style="strokeColor=#dddddd;shadow=1;strokeWidth=1;rounded=1;absoluteArcSize=1;arcSize=2;fillColor=#FFFFFF;" parent="1" vertex="1">
                    <mxGeometry x="550" y="347" width="110" height="60" as="geometry"/>
                </mxCell>
                <mxCell id="Ch8A1ACjPwMTOh7i7YPF-8" value="Cloud&#10;SQL" style="dashed=0;connectable=0;html=1;fillColor=#5184F3;strokeColor=none;shape=mxgraph.gcp2.hexIcon;prIcon=cloud_sql;part=1;labelPosition=right;verticalLabelPosition=middle;align=left;verticalAlign=middle;spacingLeft=5;fontColor=#999999;fontSize=12;" parent="Ch8A1ACjPwMTOh7i7YPF-7" vertex="1">
                    <mxGeometry y="0.5" width="44" height="39" relative="1" as="geometry">
                        <mxPoint x="5" y="-19.5" as="offset"/>
                    </mxGeometry>
                </mxCell>
                <mxCell id="Ch8A1ACjPwMTOh7i7YPF-9" value="GitHub Actions" style="dashed=0;outlineConnect=0;html=1;align=center;labelPosition=center;verticalLabelPosition=bottom;verticalAlign=top;shape=mxgraph.weblogos.github" parent="1" vertex="1">
                    <mxGeometry x="277.5" y="289.62" width="75" height="75" as="geometry"/>
                </mxCell>
                <mxCell id="Ch8A1ACjPwMTOh7i7YPF-10" value="Docker Hub" style="aspect=fixed;html=1;points=[];align=center;image;fontSize=12;image=img/lib/mscae/Docker.svg;" parent="1" vertex="1">
                    <mxGeometry x="270" y="505.82000000000005" width="90" height="73.8" as="geometry"/>
                </mxCell>
                <mxCell id="Ch8A1ACjPwMTOh7i7YPF-13" value="app.amplication.com" style="pointerEvents=1;shadow=0;dashed=0;html=1;strokeColor=#3700CC;labelPosition=center;verticalLabelPosition=bottom;verticalAlign=top;outlineConnect=0;align=center;shape=mxgraph.office.devices.laptop;fontColor=#ffffff;fillColor=#7950ED;" parent="1" vertex="1">
                    <mxGeometry x="1151" y="429.02" width="95.47" height="55.96" as="geometry"/>
                </mxCell>
                <mxCell id="Ch8A1ACjPwMTOh7i7YPF-17" value="" style="strokeColor=#dddddd;shadow=1;strokeWidth=1;rounded=1;absoluteArcSize=1;arcSize=2;fillColor=#FFFFFF;" parent="1" vertex="1">
                    <mxGeometry x="550" y="579.62" width="110" height="60" as="geometry"/>
                </mxCell>
                <mxCell id="Ch8A1ACjPwMTOh7i7YPF-18" value="Cloud&#10;Build" style="dashed=0;connectable=0;html=1;fillColor=#5184F3;strokeColor=none;shape=mxgraph.gcp2.hexIcon;prIcon=container_builder;part=1;labelPosition=right;verticalLabelPosition=middle;align=left;verticalAlign=middle;spacingLeft=5;fontColor=#999999;fontSize=12;" parent="Ch8A1ACjPwMTOh7i7YPF-17" vertex="1">
                    <mxGeometry y="0.5" width="44" height="39" relative="1" as="geometry">
                        <mxPoint x="5" y="-19.5" as="offset"/>
                    </mxGeometry>
                </mxCell>
                <mxCell id="Ch8A1ACjPwMTOh7i7YPF-21" value="" style="strokeColor=#dddddd;shadow=1;strokeWidth=1;rounded=1;absoluteArcSize=1;arcSize=2;fillColor=#FFFFFF;" parent="1" vertex="1">
                    <mxGeometry x="550" y="463" width="110" height="60" as="geometry"/>
                </mxCell>
                <mxCell id="Ch8A1ACjPwMTOh7i7YPF-22" value="Cloud&#10;Storage" style="dashed=0;connectable=0;html=1;fillColor=#5184F3;strokeColor=none;shape=mxgraph.gcp2.hexIcon;prIcon=cloud_storage;part=1;labelPosition=right;verticalLabelPosition=middle;align=left;verticalAlign=middle;spacingLeft=5;fontColor=#999999;fontSize=12;" parent="Ch8A1ACjPwMTOh7i7YPF-21" vertex="1">
                    <mxGeometry y="0.5" width="44" height="39" relative="1" as="geometry">
                        <mxPoint x="5" y="-19.5" as="offset"/>
                    </mxGeometry>
                </mxCell>
                <mxCell id="Ch8A1ACjPwMTOh7i7YPF-23" value="" style="group" parent="1" vertex="1" connectable="0">
                    <mxGeometry x="550" y="230" width="110" height="60" as="geometry"/>
                </mxCell>
                <mxCell id="Ch8A1ACjPwMTOh7i7YPF-24" value="" style="strokeColor=#dddddd;shadow=1;strokeWidth=1;rounded=1;absoluteArcSize=1;arcSize=2;fillColor=#FFFFFF;" parent="Ch8A1ACjPwMTOh7i7YPF-23" vertex="1">
                    <mxGeometry y="3.63" width="110.00000000000001" height="60" as="geometry"/>
                </mxCell>
                <mxCell id="Ch8A1ACjPwMTOh7i7YPF-25" value="Cloud &lt;br&gt;Scheduler" style="html=1;fillColor=#5184F3;strokeColor=none;verticalAlign=middle;labelPosition=right;verticalLabelPosition=middle;align=left;fontSize=12;fontColor=#999999;shape=mxgraph.gcp2.cloud_scheduler;dashed=0;spacingLeft=5;" parent="Ch8A1ACjPwMTOh7i7YPF-23" vertex="1">
                    <mxGeometry x="11" y="20" width="26.07" height="27.25" as="geometry"/>
                </mxCell>
                <mxCell id="Ch8A1ACjPwMTOh7i7YPF-31" value="" style="endArrow=classic;html=1;fillColor=#e1d5e7;strokeColor=#7950ED;strokeWidth=3;" parent="1" edge="1">
                    <mxGeometry width="50" height="50" relative="1" as="geometry">
                        <mxPoint x="1140" y="470" as="sourcePoint"/>
                        <mxPoint x="970" y="470" as="targetPoint"/>
                        <Array as="points"/>
                    </mxGeometry>
                </mxCell>
                <mxCell id="Ch8A1ACjPwMTOh7i7YPF-34" value="" style="endArrow=classic;html=1;fillColor=#e1d5e7;strokeColor=#7950ED;strokeWidth=3;" parent="1" edge="1">
                    <mxGeometry width="50" height="50" relative="1" as="geometry">
                        <mxPoint x="315" y="390" as="sourcePoint"/>
                        <mxPoint x="315" y="490" as="targetPoint"/>
                        <Array as="points"/>
                    </mxGeometry>
                </mxCell>
                <mxCell id="Ch8A1ACjPwMTOh7i7YPF-41" value="" style="rounded=0;whiteSpace=wrap;html=1;fillColor=#121242;" parent="1" vertex="1">
                    <mxGeometry x="490" y="830" width="470" height="260" as="geometry"/>
                </mxCell>
                <mxCell id="Ch8A1ACjPwMTOh7i7YPF-42" value="" style="shape=mxgraph.gcp2.doubleRect;strokeColor=#dddddd;shadow=1;strokeWidth=1;fillColor=#FFFFFF;" parent="1" vertex="1">
                    <mxGeometry x="780" y="930" width="128" height="68" as="geometry"/>
                </mxCell>
                <mxCell id="Ch8A1ACjPwMTOh7i7YPF-43" value="&lt;font color=&quot;#121242&quot;&gt;Generated &lt;br&gt;App&lt;/font&gt;&lt;br&gt;Cloud Run" style="dashed=0;connectable=0;html=1;fillColor=#5184F3;strokeColor=none;shape=mxgraph.gcp2.hexIcon;prIcon=cloud_run;part=1;labelPosition=right;verticalLabelPosition=middle;align=left;verticalAlign=middle;spacingLeft=5;fontColor=#999999;fontSize=12;" parent="Ch8A1ACjPwMTOh7i7YPF-42" vertex="1">
                    <mxGeometry y="0.5" width="44" height="39" relative="1" as="geometry">
                        <mxPoint x="5" y="-19.5" as="offset"/>
                    </mxGeometry>
                </mxCell>
                <mxCell id="Ch8A1ACjPwMTOh7i7YPF-44" value="" style="shape=image;aspect=fixed;image=data:image/png,iVBORw0KGgoAAAANSUhEUgAAAGQAAABkCAYAAABw4pVUAAAAAXNSR0IArs4c6QAAAARnQU1BAACxjwv8YQUAAAAJcEhZcwAADsMAAA7DAcdvqGQAAA+3SURBVHhe7Z0JlN1UGceTNy0FcRcEO0VRFBBQgc4ABTyAAgJHRZApKlhcEI6yFVqgLG2xrEKpRREBj6gHFegUleXgCspRtnZqxQUFAZHO1F1cQEHoxP8vyXvcycv6kryXcPid852bZCbJzf3uTe79vu/eZz1PtbD9tHaMDQ7vrOSDkt0lm3FMrJH8RHJ1/8qhe9wjNaN2CpEiXqXkcsm73QPR3CQ5Wor5g7dbD2qlECljayU/kPS7B5IZk+wtpfzG260+tVGIlPEyJT+VbO4eSM8jkh2llMe83WrT8NM68ClJVmUA51zgbVafWrQQtY6pSqjpk90D2XlasrlayVpvt7rUpYUcJOlUGcC5XKPy1EUhg36ahyKuUTp1Ucgr/TQPRVyjdOqikP/5aR6e8tNKUxeFPOineXjITytN5RWiHtZrlLzZ28vFdrrWq/3tylLZbq8Kb0Ml8yRzJBtwrAD+I7lQcpG6wGxXjsopZGxgmW3Z9ge0yWBumnuweB6VnGqPj183ddWhjneoGlRKIWoVdE0vkcxwD7TzX0nW1vKkZH1vsw0sw7PVWlZ5u72nEgqRIrDgnieZJQn7rtHL+qzkbskwBzLwfgmm+mMkYYPLccmXJGdIMX9yj/SQnipkdHB4ijJwojZPl7zIPdjOzZI5luM8rFfZam1v5x5Nz32St0heL1ki2V8Sxr8k5ziOc8m0kZlFdLM7oicKeWT69dbkxvh7tLlYsoV7sJ1fS05Srf0OO2pF1PBL2TY4RfJHiemgYgDIdU2O13VoYVznACUoZiv2Q/itZM4Tj21405YP8q/dpesKUYFQw5dK3u4eaAcz+Scll6kQMQpyzsuVPCB5Bfs+KyzHmtE/MsQrp4Vana2HulObu3hHXP4u2VLX+xs7owPDk/VPx2lzgeQlHAvhe5ITdQ4trGt0TSEqVApzkeQoySSOBVgnuVKyQIXwV/eIj86ldh/r7bnQM9pN/3eXtzsR/T/fDP5mPh8KppW10P/Rms6WfFTSx7EAz0g+LzlL56LU0smkEL9Q3yfZS/I6CR9JXhn4r69Tpn+hdALqxk7Su//j2jxLQk0P44cSejs/93afRffcVsnPJKYSv6r/xZ8eic77ihI6CU0oXBxV7XkcHN5eCa12D/dAO7SsBaoGV6pFcp0J6HxaPeVCRdhUQsvGMsBzXZtFmakUohtSGAzSEAZsYVBrvyk5Thlw/Q46b18ln5Zsw34Iv5PM7XPsb2w6coh3xODRXZZZfetsXh37eEdcnpBspXvgno1E98aHcr/khe4Bj1ufHm/svfmq9/q7z7Jmp2VWw7GHtHmRBOtAGCiT19it7Pj3oPVi2o8qy8cl50su1HltygySqBDdFAV8S7K3eyAZWgwt4sOSqEAEP5POkv6VMxknhKJ7c/4N3l6L+Xqwc/ztWHT+aUroTpscrPOpOKHoHMY5WAfiKh/lQVf5CgktIg1ULO5NhYokViFrB4Ztx3ZvnhThkRZa0dWS05SxWO+dCmaKkl9K6K42wWu4jc5lgJiIrsGA8FcSXq9NHlIuttWrJ9b6q3OxEmAtwGqQ6dUegyqXc5AqYaR1INa4KGUcoaQoZTCom6HCPCJJGT4nSExlwMlplQH6X1rfyd5eiy1UvIx9YtG5o5LDtbmbZKV7MD8HSreUaSSRChkdXMbf5nt7ueBdP0tVYlc9YKrgNdVOXgNneHstbh8ft5b726nh+6SEj6vJ6boH1oFElOe7HMftQvMKLiLGa77uHVnukX+wLZtMmE29EyiIrfVQV09bORTZTEM4V/Jib9OFLvHszVbxzc2G31mYLeEaTbAKBL8tkUzTWEfP8GVtMpi83T3YOZSpOUaaQNwrK8rAl4X19CB8wFOj2jNdyYe8vRZf1HXo+naEzqU7zRjHZJbulcnPruv8W0meYIsmHSmELl1e0kYYuqwdXM7HE2uvma9/SM70NnPBqNwMluMel7jm/mwUUS6R14hTSGKfOQXmayIRx3IYXPERNVmkmvkXf7tjdA1G/5hkTGb4vpcsZHqmCCKvEacQBm15SX0NvT5eoIToRBMGdkGDYh4uk2C0NLlA944ab4RB1zsvD/tpG3EK+ZGf5iHLNbDcNq22TbD2ugbGIvCvFezyMt5gEJiWUsslUiHKPBHjoca7lPDwDAITUQ0l+CA4XrhFebjF3y4MXfO7SvCxmMxRHtLGDfNMeSrJncoDLT+UuBYCmB6ydFdNsK7iu04DgQe8sprwwCd5m6WAacR0QmEuIQ+J6Jl+r4RXXyfgKohtjbEK0c3pc6furxvgo8YLmIhq5luVzPT2WlwaV4vyomvjW3EdVgZDykuUtTcIz9aJH/4c3fvH/nYoSS3EchyH0TpKSdtS7pDspxsnhtn41gDM3mbXkx4VfpOywQ/yZ2+zxdLRgWVhfpEJ+M+2n4RnTQNld67j2LggYklUyLSRmY4ygBkDE3hcraAgT9ad99L/T3AwRWFbNuaIHb29FlhzGXuUiu7xTyVB88z2tm3jrErEf0b8Qnz74rrlTDLaR/9/5rSRQxIrdaZBke8L30GbmJI3cg960EP6jG6aOn5WrwdMI7w6NnEPeNyrujS9f2SoiL5+ImNuC7VHtMkzNaHV4G9JXSl0nSm6zvHaNL9DKGzfvsbTqze9J/1QJ7GFmODYUUaJ/AiaQ+7NogwfXoWmMmB2t5QB/Stn8pHFqmzWXNy6mYyqug7Pfq+31+JxyiqLMiCTQopCreMNSqhRJsv1AEX08TOhe/KRDcZ6Has8RkWllEpPFCIulqznbbrg4wiOQ7oJr1zTz0LeCBXqOl1XiGreO5S8y9trcbFqahEmiY7QvRlb4Es3OUB5jQqqK42uKkQPSLBEsObhwKrCLFnsaATamSxRnoswt6em2y3kE5JgBMo81dBYx383UB4YWwRH0SxUMCGWq2y6phDVNGK6ggOjuzXw/Jq/3XOUl2uUBAd7C5X3jf3t0ulmC2H0zWoMTdwuJwNPb7f3+HnB3WuGp75Uwqi+K3RFIaphb1JytLfXghV7VvjblUF5YqBI1KPJkXoGIuhLp3SFEH0osFeZNiIGlliSqwrGQ/znTcj70jU7Xe/tlUjpCulbZxNm+TZvr8V5qomVXTZJeSP6ksgXkz0bznh7DGrBlKoQNXOiD4NzNR62HDfet+I4tOrgdOzFeqao6XGFUHYLwckUjO2a2z/iRhRWGt8+Ndfba4FXEedWaZSmENUkIgOD34nb7GfsyEDnqrHe5MkEerNgmsk8PVum8KYslNlCCME35w1ixZ09dXX7tIOqsvGdzLpzu8FmSBTTG3i2UihFIapBOykJTqi5Uh/LtskyVUd5JnqeNR5NDtczRkYf5qFwhYwOXofTiw+ieW0iBokcrCsLJeYsKPcZO4h6TKRwhdhW4zAlwbhg5uilcutWEeUdZaAUk50t246dVtcJhSpEzZgIwKDlllmsTJysO7y2eH2ZnK9nNqfM5aboFoK1NNgDKTT6sFfoGfiw84E3IWg6VbhTWgpTiGpKWB/9Zj0IkYLPCfQsdIGDcx5P1LPnnUfTosgWgsfNXBiGyMAyow97BYNFM6CDkXvQ29gxmRQyNv1GWgJzuoPR4kQeBgcYhAWxTMVzCj0T5hTmsJgcLDnU22yxIWXlG1dTk1ohuvgeVuMpzOWEAQUdNsHgMlbVSTV1uaZgeMQAafIRP21CGa3uW2evUNnt6R1KJrEfPTpwjXp3kxhD4O1L2+9m8YAi53VUDhUy7ujPeXuJ4PhaZI03zuoPWbTAJLGFSBmEWzLzKMsgCIdOod3BKjHqPVvQ4RYHZbfQaowHxzJtxCpEhYp5oJPAZ7xrqcL764hKl494JwtzLlCZ8nsnkSS1EIxoqb8zAY7SzaPWwqoteiYWM/iYt5cZyjLWMBlZ2LoxfevUH6MQcHvGrlpQU1hhKHHKQgy7q2y39LfbiPwu6CSmClzl7XUMo9vUS2HUBMZaYet9ZYFf/gnOm3eJex0VMfok4/hEnkuSVxnwWj9tI04heZrl88QTWbZxCqn8j5/UmMjF1+K+IQNK8i5LxCQWFpus5LLeHcJkngO9zY7ZWd+Q0CDBSIWMDi6zbctm1YO8E1eIKD/Vdqxrp45kWhGoUqiCsqgBvh4WZo4stxQ8oIH71lGLmMVeWJng5l/39nJDEDMLXRKqWRtGB4Y3UM1kMtGpEnMufaccpjKILNNYhayZPmw1Gu50r6JCRQhiZt0plvUOGucqxejActu2HazYzBsJWxSTZ4n7BofBckdDU1dGr/sVe0F/wTAGQu7q0ilhijAPErYsBvfDKnq/Wt8pLDXuHq0YytsOUgaLJlwrCSqDioR1e1dJllWKvi2ZFacMSPUuVAbpptFsMTTGGQ1vlByj2j/Kjs5jShgzppj4Ega+hbmTnnBu2OS+4GIO3Uf5ZQYupnUqTbCy4pTCD3Kuno914vl/vitYtePWpSRo+zzLcS7qH5mZOMM408dJGWB+B2taETyNnaq5kDI9BhZSDlsImf9hVWpM+My1COP7EtbDDQYRdAXlkUme9AbpQYUtPY7bdq7yF/rTSzofQyMOKuLRWC8SbykLKd8moVxS/8poJoXkQZnGYcPElyMlYQMjzCxEdizUA3RlWW/HWmitHdzundpkVnCYfYkKQkWhwnSFrimkiRSDaZ6mH7es90IV1xXqGhaxql0oyscblRCFz6zgIM04rMuljNLyEEbXFQJrB663HHucnht+hah1qlhEmdoZDHZuoULF3saSgObPVdyhcyJXbNM5vHYpbDx+wRm2FD6rVdNK3V9S6DY9UUgT9bLWVwYIHSJKPmqZPd7fc1RArZ+9U6HSuvDZRzl7+CkjFrFprQyh8USfxhP8MgMON3OdliYongpARegZPVVIExUwwXWMgglDDcsTPRzihXHu0NMjFCcp74yEFzuWM8+2bPw6vJ7CvHwoes4U+8kbNlpReGRoZiqhkCZSDC5jvi/0VsLAJpZ1tIz5h+9FELqj6uI6S/3JOZWgUgqBsYHhhnJFVWXRtCLWyA3CCJtZtqfr9VQ5a0HlFNJErYUBKHGzrCJa1Lw+fgrpBCmisva0yiqkiRRDT+oLkuBM3qywxN78NKu69ZKsxrGuo9pMF5ZoybysX3VlQOUV4hP8HZFOKOIapVMXhZiLnXVKEdconbooJLicayf0/GdV01AXhRTxk0NF/WxRqdRFISw2kGdaHOfWYsGCWihEPS1CkviZuk65Steo7GI3JnVpIcCE0k4WyuQ3TLL8HEVPqY1CVMPxuuESjv2FzwC4kvfXuaUvXV4UdWohKIXfNCGAD999EpjtB3VOab+yUAaVN51EMeatp0JEDD6RpoOK3yvBF1LJ5QOfp3ZY1v8BdahDwyZGcRcAAAAASUVORK5CYII=;" parent="1" vertex="1">
                    <mxGeometry x="880" y="974" width="50" height="50" as="geometry"/>
                </mxCell>
                <mxCell id="Ch8A1ACjPwMTOh7i7YPF-45" value="" style="group" parent="1" vertex="1" connectable="0">
                    <mxGeometry x="769" y="410" width="150" height="94" as="geometry"/>
                </mxCell>
                <mxCell id="Ch8A1ACjPwMTOh7i7YPF-5" value="" style="shape=mxgraph.gcp2.doubleRect;strokeColor=#dddddd;shadow=1;strokeWidth=1;fillColor=#FFFFFF;" parent="Ch8A1ACjPwMTOh7i7YPF-45" vertex="1">
                    <mxGeometry width="128" height="68" as="geometry"/>
                </mxCell>
                <mxCell id="Ch8A1ACjPwMTOh7i7YPF-6" value="&lt;font color=&quot;#121242&quot;&gt;Amplication&lt;/font&gt;&lt;br&gt;Cloud Run" style="dashed=0;connectable=0;html=1;fillColor=#5184F3;strokeColor=none;shape=mxgraph.gcp2.hexIcon;prIcon=cloud_run;part=1;labelPosition=right;verticalLabelPosition=middle;align=left;verticalAlign=middle;spacingLeft=5;fontColor=#999999;fontSize=12;" parent="Ch8A1ACjPwMTOh7i7YPF-5" vertex="1">
                    <mxGeometry y="0.5" width="44" height="39" relative="1" as="geometry">
                        <mxPoint x="5" y="-19.5" as="offset"/>
                    </mxGeometry>
                </mxCell>
                <mxCell id="Ch8A1ACjPwMTOh7i7YPF-30" value="" style="shape=image;aspect=fixed;image=data:image/png,iVBORw0KGgoAAAANSUhEUgAAAGQAAABkCAYAAABw4pVUAAAAAXNSR0IArs4c6QAAAARnQU1BAACxjwv8YQUAAAAJcEhZcwAADsMAAA7DAcdvqGQAAA+3SURBVHhe7Z0JlN1UGceTNy0FcRcEO0VRFBBQgc4ABTyAAgJHRZApKlhcEI6yFVqgLG2xrEKpRREBj6gHFegUleXgCspRtnZqxQUFAZHO1F1cQEHoxP8vyXvcycv6kryXcPid852bZCbJzf3uTe79vu/eZz1PtbD9tHaMDQ7vrOSDkt0lm3FMrJH8RHJ1/8qhe9wjNaN2CpEiXqXkcsm73QPR3CQ5Wor5g7dbD2qlECljayU/kPS7B5IZk+wtpfzG260+tVGIlPEyJT+VbO4eSM8jkh2llMe83WrT8NM68ClJVmUA51zgbVafWrQQtY6pSqjpk90D2XlasrlayVpvt7rUpYUcJOlUGcC5XKPy1EUhg36ahyKuUTp1Ucgr/TQPRVyjdOqikP/5aR6e8tNKUxeFPOineXjITytN5RWiHtZrlLzZ28vFdrrWq/3tylLZbq8Kb0Ml8yRzJBtwrAD+I7lQcpG6wGxXjsopZGxgmW3Z9ge0yWBumnuweB6VnGqPj183ddWhjneoGlRKIWoVdE0vkcxwD7TzX0nW1vKkZH1vsw0sw7PVWlZ5u72nEgqRIrDgnieZJQn7rtHL+qzkbskwBzLwfgmm+mMkYYPLccmXJGdIMX9yj/SQnipkdHB4ijJwojZPl7zIPdjOzZI5luM8rFfZam1v5x5Nz32St0heL1ki2V8Sxr8k5ziOc8m0kZlFdLM7oicKeWT69dbkxvh7tLlYsoV7sJ1fS05Srf0OO2pF1PBL2TY4RfJHiemgYgDIdU2O13VoYVznACUoZiv2Q/itZM4Tj21405YP8q/dpesKUYFQw5dK3u4eaAcz+Scll6kQMQpyzsuVPCB5Bfs+KyzHmtE/MsQrp4Vana2HulObu3hHXP4u2VLX+xs7owPDk/VPx2lzgeQlHAvhe5ITdQ4trGt0TSEqVApzkeQoySSOBVgnuVKyQIXwV/eIj86ldh/r7bnQM9pN/3eXtzsR/T/fDP5mPh8KppW10P/Rms6WfFTSx7EAz0g+LzlL56LU0smkEL9Q3yfZS/I6CR9JXhn4r69Tpn+hdALqxk7Su//j2jxLQk0P44cSejs/93afRffcVsnPJKYSv6r/xZ8eic77ihI6CU0oXBxV7XkcHN5eCa12D/dAO7SsBaoGV6pFcp0J6HxaPeVCRdhUQsvGMsBzXZtFmakUohtSGAzSEAZsYVBrvyk5Thlw/Q46b18ln5Zsw34Iv5PM7XPsb2w6coh3xODRXZZZfetsXh37eEdcnpBspXvgno1E98aHcr/khe4Bj1ufHm/svfmq9/q7z7Jmp2VWw7GHtHmRBOtAGCiT19it7Pj3oPVi2o8qy8cl50su1HltygySqBDdFAV8S7K3eyAZWgwt4sOSqEAEP5POkv6VMxknhKJ7c/4N3l6L+Xqwc/ztWHT+aUroTpscrPOpOKHoHMY5WAfiKh/lQVf5CgktIg1ULO5NhYokViFrB4Ztx3ZvnhThkRZa0dWS05SxWO+dCmaKkl9K6K42wWu4jc5lgJiIrsGA8FcSXq9NHlIuttWrJ9b6q3OxEmAtwGqQ6dUegyqXc5AqYaR1INa4KGUcoaQoZTCom6HCPCJJGT4nSExlwMlplQH6X1rfyd5eiy1UvIx9YtG5o5LDtbmbZKV7MD8HSreUaSSRChkdXMbf5nt7ueBdP0tVYlc9YKrgNdVOXgNneHstbh8ft5b726nh+6SEj6vJ6boH1oFElOe7HMftQvMKLiLGa77uHVnukX+wLZtMmE29EyiIrfVQV09bORTZTEM4V/Jib9OFLvHszVbxzc2G31mYLeEaTbAKBL8tkUzTWEfP8GVtMpi83T3YOZSpOUaaQNwrK8rAl4X19CB8wFOj2jNdyYe8vRZf1HXo+naEzqU7zRjHZJbulcnPruv8W0meYIsmHSmELl1e0kYYuqwdXM7HE2uvma9/SM70NnPBqNwMluMel7jm/mwUUS6R14hTSGKfOQXmayIRx3IYXPERNVmkmvkXf7tjdA1G/5hkTGb4vpcsZHqmCCKvEacQBm15SX0NvT5eoIToRBMGdkGDYh4uk2C0NLlA944ab4RB1zsvD/tpG3EK+ZGf5iHLNbDcNq22TbD2ugbGIvCvFezyMt5gEJiWUsslUiHKPBHjoca7lPDwDAITUQ0l+CA4XrhFebjF3y4MXfO7SvCxmMxRHtLGDfNMeSrJncoDLT+UuBYCmB6ydFdNsK7iu04DgQe8sprwwCd5m6WAacR0QmEuIQ+J6Jl+r4RXXyfgKohtjbEK0c3pc6furxvgo8YLmIhq5luVzPT2WlwaV4vyomvjW3EdVgZDykuUtTcIz9aJH/4c3fvH/nYoSS3EchyH0TpKSdtS7pDspxsnhtn41gDM3mbXkx4VfpOywQ/yZ2+zxdLRgWVhfpEJ+M+2n4RnTQNld67j2LggYklUyLSRmY4ygBkDE3hcraAgT9ad99L/T3AwRWFbNuaIHb29FlhzGXuUiu7xTyVB88z2tm3jrErEf0b8Qnz74rrlTDLaR/9/5rSRQxIrdaZBke8L30GbmJI3cg960EP6jG6aOn5WrwdMI7w6NnEPeNyrujS9f2SoiL5+ImNuC7VHtMkzNaHV4G9JXSl0nSm6zvHaNL9DKGzfvsbTqze9J/1QJ7GFmODYUUaJ/AiaQ+7NogwfXoWmMmB2t5QB/Stn8pHFqmzWXNy6mYyqug7Pfq+31+JxyiqLMiCTQopCreMNSqhRJsv1AEX08TOhe/KRDcZ6Has8RkWllEpPFCIulqznbbrg4wiOQ7oJr1zTz0LeCBXqOl1XiGreO5S8y9trcbFqahEmiY7QvRlb4Es3OUB5jQqqK42uKkQPSLBEsObhwKrCLFnsaATamSxRnoswt6em2y3kE5JgBMo81dBYx383UB4YWwRH0SxUMCGWq2y6phDVNGK6ggOjuzXw/Jq/3XOUl2uUBAd7C5X3jf3t0ulmC2H0zWoMTdwuJwNPb7f3+HnB3WuGp75Uwqi+K3RFIaphb1JytLfXghV7VvjblUF5YqBI1KPJkXoGIuhLp3SFEH0osFeZNiIGlliSqwrGQ/znTcj70jU7Xe/tlUjpCulbZxNm+TZvr8V5qomVXTZJeSP6ksgXkz0bznh7DGrBlKoQNXOiD4NzNR62HDfet+I4tOrgdOzFeqao6XGFUHYLwckUjO2a2z/iRhRWGt8+Ndfba4FXEedWaZSmENUkIgOD34nb7GfsyEDnqrHe5MkEerNgmsk8PVum8KYslNlCCME35w1ixZ09dXX7tIOqsvGdzLpzu8FmSBTTG3i2UihFIapBOykJTqi5Uh/LtskyVUd5JnqeNR5NDtczRkYf5qFwhYwOXofTiw+ieW0iBokcrCsLJeYsKPcZO4h6TKRwhdhW4zAlwbhg5uilcutWEeUdZaAUk50t246dVtcJhSpEzZgIwKDlllmsTJysO7y2eH2ZnK9nNqfM5aboFoK1NNgDKTT6sFfoGfiw84E3IWg6VbhTWgpTiGpKWB/9Zj0IkYLPCfQsdIGDcx5P1LPnnUfTosgWgsfNXBiGyMAyow97BYNFM6CDkXvQ29gxmRQyNv1GWgJzuoPR4kQeBgcYhAWxTMVzCj0T5hTmsJgcLDnU22yxIWXlG1dTk1ohuvgeVuMpzOWEAQUdNsHgMlbVSTV1uaZgeMQAafIRP21CGa3uW2evUNnt6R1KJrEfPTpwjXp3kxhD4O1L2+9m8YAi53VUDhUy7ujPeXuJ4PhaZI03zuoPWbTAJLGFSBmEWzLzKMsgCIdOod3BKjHqPVvQ4RYHZbfQaowHxzJtxCpEhYp5oJPAZ7xrqcL764hKl494JwtzLlCZ8nsnkSS1EIxoqb8zAY7SzaPWwqoteiYWM/iYt5cZyjLWMBlZ2LoxfevUH6MQcHvGrlpQU1hhKHHKQgy7q2y39LfbiPwu6CSmClzl7XUMo9vUS2HUBMZaYet9ZYFf/gnOm3eJex0VMfok4/hEnkuSVxnwWj9tI04heZrl88QTWbZxCqn8j5/UmMjF1+K+IQNK8i5LxCQWFpus5LLeHcJkngO9zY7ZWd+Q0CDBSIWMDi6zbctm1YO8E1eIKD/Vdqxrp45kWhGoUqiCsqgBvh4WZo4stxQ8oIH71lGLmMVeWJng5l/39nJDEDMLXRKqWRtGB4Y3UM1kMtGpEnMufaccpjKILNNYhayZPmw1Gu50r6JCRQhiZt0plvUOGucqxejActu2HazYzBsJWxSTZ4n7BofBckdDU1dGr/sVe0F/wTAGQu7q0ilhijAPErYsBvfDKnq/Wt8pLDXuHq0YytsOUgaLJlwrCSqDioR1e1dJllWKvi2ZFacMSPUuVAbpptFsMTTGGQ1vlByj2j/Kjs5jShgzppj4Ega+hbmTnnBu2OS+4GIO3Uf5ZQYupnUqTbCy4pTCD3Kuno914vl/vitYtePWpSRo+zzLcS7qH5mZOMM408dJGWB+B2taETyNnaq5kDI9BhZSDlsImf9hVWpM+My1COP7EtbDDQYRdAXlkUme9AbpQYUtPY7bdq7yF/rTSzofQyMOKuLRWC8SbykLKd8moVxS/8poJoXkQZnGYcPElyMlYQMjzCxEdizUA3RlWW/HWmitHdzundpkVnCYfYkKQkWhwnSFrimkiRSDaZ6mH7es90IV1xXqGhaxql0oyscblRCFz6zgIM04rMuljNLyEEbXFQJrB663HHucnht+hah1qlhEmdoZDHZuoULF3saSgObPVdyhcyJXbNM5vHYpbDx+wRm2FD6rVdNK3V9S6DY9UUgT9bLWVwYIHSJKPmqZPd7fc1RArZ+9U6HSuvDZRzl7+CkjFrFprQyh8USfxhP8MgMON3OdliYongpARegZPVVIExUwwXWMgglDDcsTPRzihXHu0NMjFCcp74yEFzuWM8+2bPw6vJ7CvHwoes4U+8kbNlpReGRoZiqhkCZSDC5jvi/0VsLAJpZ1tIz5h+9FELqj6uI6S/3JOZWgUgqBsYHhhnJFVWXRtCLWyA3CCJtZtqfr9VQ5a0HlFNJErYUBKHGzrCJa1Lw+fgrpBCmisva0yiqkiRRDT+oLkuBM3qywxN78NKu69ZKsxrGuo9pMF5ZoybysX3VlQOUV4hP8HZFOKOIapVMXhZiLnXVKEdconbooJLicayf0/GdV01AXhRTxk0NF/WxRqdRFISw2kGdaHOfWYsGCWihEPS1CkviZuk65Steo7GI3JnVpIcCE0k4WyuQ3TLL8HEVPqY1CVMPxuuESjv2FzwC4kvfXuaUvXV4UdWohKIXfNCGAD999EpjtB3VOab+yUAaVN51EMeatp0JEDD6RpoOK3yvBF1LJ5QOfp3ZY1v8BdahDwyZGcRcAAAAASUVORK5CYII=;" parent="Ch8A1ACjPwMTOh7i7YPF-45" vertex="1">
                    <mxGeometry x="100" y="44" width="50" height="50" as="geometry"/>
                </mxCell>
                <mxCell id="Ch8A1ACjPwMTOh7i7YPF-46" value="" style="strokeColor=#dddddd;shadow=1;strokeWidth=1;rounded=1;absoluteArcSize=1;arcSize=2;fillColor=#FFFFFF;" parent="1" vertex="1">
                    <mxGeometry x="550" y="930" width="110" height="60" as="geometry"/>
                </mxCell>
                <mxCell id="Ch8A1ACjPwMTOh7i7YPF-47" value="Cloud&#10;SQL" style="dashed=0;connectable=0;html=1;fillColor=#5184F3;strokeColor=none;shape=mxgraph.gcp2.hexIcon;prIcon=cloud_sql;part=1;labelPosition=right;verticalLabelPosition=middle;align=left;verticalAlign=middle;spacingLeft=5;fontColor=#999999;fontSize=12;" parent="Ch8A1ACjPwMTOh7i7YPF-46" vertex="1">
                    <mxGeometry y="0.5" width="44" height="39" relative="1" as="geometry">
                        <mxPoint x="5" y="-19.5" as="offset"/>
                    </mxGeometry>
                </mxCell>
                <mxCell id="Ch8A1ACjPwMTOh7i7YPF-48" value="" style="endArrow=classic;html=1;fillColor=#e1d5e7;strokeColor=#7950ED;strokeWidth=3;exitX=0.5;exitY=1;exitDx=0;exitDy=0;" parent="1" source="Ch8A1ACjPwMTOh7i7YPF-17" edge="1">
                    <mxGeometry width="50" height="50" relative="1" as="geometry">
                        <mxPoint x="600" y="690" as="sourcePoint"/>
                        <mxPoint x="605" y="820" as="targetPoint"/>
                        <Array as="points"/>
                    </mxGeometry>
                </mxCell>
                <mxCell id="Ch8A1ACjPwMTOh7i7YPF-49" value="" style="shape=image;aspect=fixed;image=data:image/png,iVBORw0KGgoAAAANSUhEUgAAAMgAAADICAYAAACtWK6eAAAAAXNSR0IArs4c6QAAAARnQU1BAACxjwv8YQUAAAAJcEhZcwAADsMAAA7DAcdvqGQAACytSURBVHhe7Z0HYFXl+f+fu/dNcrMTQhL2RhTZiIriAAU31lERcfy0VWutWrXWOtrautqqdVu34gQHoiCyhyCbhJWE7Hn3Xv/zHp/wB5Nwz3vOvefem5xPKzzPG1buvd/zrmfIQEI0otH9mgarIl8tj+Yp5Zr+CrnKIlMqDQpQqAAUcrkc5OTXRSIQAQhHwuFwKBQNucORYAdEPLXBaLS1IFPTKJOV+9g/UCLhSAKJM63RVpPc4Zqm05iHK+U6nTfoMPiDjhFKpW6YRq4rkCtUGjmjCkYcCoVCybz+sd6CKDBCiYYjgXAkGgpFIkF/IOxrCYQ8+7Qq8z7m73GFQn6vz2+vALN5rUVmseNvlJBIDXbVLLmgpmXrSqurvj0cCUWTBfm77e56W23rtjV7ar64HP95EgKQZhBK2myHJui0GVMDQX8280SfY9Bmj9CoDMwSKfUIBD1BT8C6Xy6Tf6FS6Fp9gY5NFvPAtfhlCQ5IAolBi+PQdKM6Z6Lb13KGUVcwU6s2avBLaYk/6A64vC1rjLqc5U5/x9ZcU9kK/JJEN0gC+QXN0Wajzie/xue3zsrQF89Wq/QpOTvEi2DIF7J76lfo1ZlfBv3KtzMzM634JQkGSSAMPp99MLOZ/jXIZJcbtTkDlAqNAr/UpwiFAxGPr602KoMPtQrT61qteR9+SaKvcqhhzbOhUCCC+1wJhGz4q5s2vIEvU5+lT84g7a4j52YYiiZ6fdabmBmjEIclusHjb2+zuhteMmizt2QZij/D4T5DnxKI29txSzji/71JXzAAhyQocPpa6hQy1T8MWsu/cKjX0+sF0m6vmmwxl8zy+t136jTmDByWEIAv4HJ1uKtf1KjMy3JMpd/hcK+k1wqkzV41SQbRRy3m8pk4JJEAbK7aDQCRB7JMZStxSCLVcbiabohEw7jdlBCDAw2rfocvf6+iV80gTk/T1cFI8IFMfdFQmYyN+5MQjSg43M21CoXqYaMu51UcTHt6hUACAfepbr/1+Uxj8XgcShuiJHA3SiJ9mR+IwSIDmYx5a9j/p5/Q7Z7G3ZFw8BaLuTTtw1rSWiB17QdKzNqMx4267KtTacYIhrxgddeCw9MI7c5qaHMcgAAz5vK2gjdgBV/QCW5fOzkVAg/zM7McxN95POR7MmhywKjLZX7OBq3aDDp1BuPngVqphxzTAMg2lYNZXwhZxv7sWOoQZb5H62KXt+WRAsvwXTiYdqSlQJzOpnyFUv1fnTZrHg4lhVDYD0daf4QDjd+zH/g252E40rIFHN5G/BXiYtTmQmneRFY4eo0FBhWdDmWMr1Jo8VckB2/A+SWEQ7fq9ZYaHEob0lIgdk9zk1mXl4+u6ATDPthR9TG8t3oRY3txNDWRyxRw2dTnYfzgq0CjNOCo+DAPEBuzN8lCN21IK4Ewe43x/qDrLaM+bxgOiQZZLm099D7srf0KKuvT8+h/UOFpMLJkNpwy8FeQaeyHo+Lh8rfXaOS6+Wq1YSMOpTxpIRCfzz7E5mn4Q7Z54AKlQiXaZqOhYxdsY0RxuHk9HGxchaO9g/L8KaxgxpZdAv1zxTvbIDFeHc6qzzN0hX/SaEwpvzdJeYE43E1zNSrT+2qVXpSFNNlAb97/BmyofBXq23fgaO8mP3M4TB62ECYPWQg6TSaOJpZgyBf0B52/Nunz3sOhlCSlBWJzN7yWoS9cgG7CCIUDsOXgW8zy6WvYXbOEecoF8St9C3JqNqLkfGYZdj5MHLpAlM2909PygdmQPx/dlCNlBVLdsuXx0tzx96GbMMjp07+/PJNZTu3EEQlCjnkQ3HHBGjDrC3AkcTCv/evF2WOvRzelSDmB+P3OUXZf85O55gGzEvnP63AdgY2Vr8EPu58Fb8CGoxLHolYa4LSRt8HkoQshN2MwjiaGDmf1FqMm92aNxrgNh1KClBJIIOCZFoHINxqVIWE3XvsbVsKXPz4IVczGW4I7/bLHwezxf4GR/efgSPwJhLwBd9A2y6Iv+gGHkk7KCKS+dc/c/KzBnygSdEpFTqQ+23gXVNR/iyMSfBhYMB0umvRUwk6+otEItNgPLCrIGvYKDiWVlBBIq7Xy7pzMwU8k4p+z/fBHsHH/a+wGXCJ+DCqcAVOG3QjjB/0KR+JLu6P67zkZ5feimzSSLpADjateGFQw42Z048ry7Y/DF1vuR08iEZw55i6YN/Gf6MWXmtYty8vyJpyDblJIqkBszvpXM4xFcT+98Pit8NH638CPB9/BEYlEclL5pXDZ1OfApMvDkfjh8rYuNunzklYlMmkCcbgb3zXpC65ENy64vC2wctdTsL7iZUYkHTgqIQYapRGmDF8EZ4y+CzINxTgaH9y+js+NuuykBKYmRSCJEMfWg+/BB+tuAV9Aqt2cTFQKHVw27XmYNOQ6HIkPjEiWMCKZi65oiC4Qm7Pu5Qxj8Q3oCiYcCcH7q2+ATQf+hyMSqcCYsnlw3Znvg1IRv0qtyVhuiZpldLBh1X/iKQ7Cxxt+K4kjBdlZ/Rm8v+Ym9OKDUZd7WXXL5m/QFQXRZpAW6/47czMHP4WuYFrtB2DJ5vtgR/XHOCKRigwtPhsumvQkFFlG44hwOhxVf83OGPBHdBOKKAJpaN9zfqFlxJfoCqai7lt47btLwRd04IhEKqOUq+H6sz6CUaUX4IhwmmwVCwuzhr+GbsJIuEACgcA0uVy2+uduSsLZfOBNeHvVr9GTSCdIZuP0EbegJwxS7EIG4RkymXo1DiWEhArE53OMALl8S7xiq5b/9Dh88aN08ZfOzBxzN8yd+AR6wiA5JRCNTFarDVtxKO4kdJPu8DU9Fi9xvL/mRkkcvYAVO/8Bz315FmN1ljjij0qpVTl9zf9BNyEkTCCBkOeB3IzBcbnc+WDNzezln0TvoLJhBbOHJDlSwkViMZVPqm/b9V90405Cllg2d8PLGfrCuBznvvPD9bBp/+voSfQmRvW/ABad8xnzIRT+nHb52habdLlxvyOJu0DsrobzzIbCr9AVxNurFjCb8j7fw6VXM6r/HLjxnCWMJfyj6PK2XmHS532IblyIq0C8XttAuUK1R63SC74+JZdM6yteQk+iN0OCHa8/i3yuhX0cgyF/OBoJnqzRmOKWPx3XPYjd13B7PMRBllWSOPoO26s+gmeXno4ef1RKjcLubXgQ3bgQtxkkEHCfIpertwi971i27RH4auuf0JPoS5w+6k64eLKwYAtyPxIK+qeo1foNOCSIuM0g3pDrNaHi2HLgLUkcfZhVu5+G1XuEndqSDX8g4olbIpDgGcRqtWbKNf69Zl2+oGaYFXXL4fmvk5o8JpEikE07OeESgsdvc8kikRF6fXYtDvFC8Ayi0UdfEyqOFlslvPLtRehJ9HVeXj4PatuEVf/RazKNCoX6RXR5I0ggNbadWTp1luBP9pIt95GLRfQk+jqkssmnG+9Ejz9qtfG8Vvu+oejyQpBAslQFT6LJi0gkBIvX3Qo7qz/FEQmJnznYuBre+v5aID1YhGBQ5z+GJi9470FIKwKVSrdFyDbmfyuvgq2H3kVPQqIrpFbwzecKy5SwOo+cZjGXrkGXCt6fbqurdl2mod8UdKkhvTb+tzKuaelU5JgGwuCiM8BiLIWS3FPYVmYkn1rOtnI7/mUhR4cPvz+gx1Zp6chD8w+DQq5CrxMZu7whDYJs7lqoadnMtpKrbt4Ade0/4a8Rn/nTXoQpw29Ejx6Ht2V3hj6fV8YWL4E4PS2XG3W5H6BLjdPbzH7gxN535JoHw+mjbmcrl9P287vjVTWzJOw9Vd+fXRRm3nzuK2yy1CGz/fe7nhG90DepOv+nKw6yDzG+uH3tC426HOoEK157kEDIKyjdcdXuZ0UXR1neJLj/8n0wfeStKdbsMj0gxRcmDlkA916ygy3IICZkVhN6PxKOBh9BkwpqgdhdjQssppKx6FJDiroJ/WZpIMuIc8Y9CL+ZvZLt1ychnOtnLoY54x8Fk068NpE/7P4X2N316NFj1hUUHWz84W50OUMlELIxNxsKmGmK/8b8w7W3gD/oRC+xKBVauGvuJrYquUqpw1EJocjlSpg17n72tc3QF+FoYolEQ/D+WmFVUgYWnPaE1Vk3E11OUAnE4Wt+GE1efLX1Idh2mPfWhZpFZ38K/XLGoScRbyymUlgwU7z3c8+RL9nOwsKIUi21OAuk1XbwFGaTdD661JCIzWXb/oJe4jl54HwYXnIuehKJYkDBNJg+4v/QSzwbKl+BTfv510HLNPabbHPWkZxfTnAWSE7GQEGdU9bufQEtcZg2PD7VMyRiQwoxiMn3uwTdT4M3aOMc9MdZID6/43Y0qalr+4nt7CQWBk02s96chp5EorGYyiDHPBC9xEOaIZGbdr5kGctuRTMmnATi9rbfqNWYs9Cl5pONv0NLHCYNvZ49O5foGZmAg5buSFQjnZ74ZAP/WC2NyqBzB+x3oHtCOL1KdnfTXrM+fzi6VOyr/QZeWCbuXuCOC9Yya+Op6HGjxb4fth16H4IhL7j97eAN2Nnzd/ISkZv0HVW9q8QpuctQyNXoAWhVJjBoc9jWz6NL51IfbrQ7quDhDwagJw4LZn4I4wZchh4dbn9Hg1GbHbNPQ0yBWJ1VZ2Qay3ivj/752QQ40roFPXF4ZmGQPYrkAumJ/tI3F8K+umU4IkEgF6skBkqvseBILKLw+9dNEAi50U88+ZnD4P7L9qFHj83TeEmWoegTdLsl5jqEEcdpaFJjddWKLo7+OeM5i4PwzU+PSeLohuqWjbBiJ81mWAYzx/4ebXFotlVAffsO9Ojx+DsmodkjMQXi9LUuRJOadfsSVs+rR84Z9wBa3Kisk7re9gRtPbKTyvktd4SwvoJ/M9wsfb+YtdtOKJCD9T88atLmlqBLBWnO//3uZ9ATj4GF09GKjT/ogaoWqV96Tzg8jdDmOIxebPLMg9ESj7X7nmdXKnzQaTKyalp/PGG+RY8C8XqtZeWFU3kVwyXr+ic+OZnZ8IqfJajXcD9sq2tPWM3jXsOums/Qio1CoWY2+2b0xIEcpPzt49Hs4Qof+ueccqXf7+wxFL5ngYTdv+Yb3Lex8nVod1ahJx6Zhn7Mj9yPLw828sqh6VO4fXTNUAsto9ASD3LiuGbv8+jR4w+5euyn0aNAZBAh1YV5sbc2LpVHqckw0AXOhSPC0jn7AsEw3ZM53h1uuSIkbTsqk12FZhe6FUg0GlUbtflD0KXCH3TB7iNL0RMXk5Yu/JrkxEucGPJ+0qBRmdASl8PN60gBa/ToMGpzC2w2W7fn2d0KxOlrW6hUqHucXU7EhopX8IJNfHTqTLS4EQoH0JLoCVqBKOVatMRnLc9lFkmzVmtlC9A9jm5F4PV18C6Uui6JNXWPvRnmAskxkDgxwTDdQYtCwf0OKt783EOGX88Rj7+920j1bgWSaSzhVeuqrm07NNv432wKRS6nm/RICInEiWGW22hxIx69Pvhic9fB/obv0aMjw1B8OvO9dlF3l++mzXZoglqp+2W5C05ILZklkk1FHb826mRLYXUemY3uUboIRK/N4R1awle9EhLxYnfNF2jRo9fmjkTzKF0E4vI104XBIg5PE1Q1r0NPQiI5NNn2Qqv9IHp0uLzNXfYhXQRi1hWehyYVpHVB2iG8h2SvJ5qGL9KWg/w+i2Z9QZfgxeME0mLdP06jNvLqELUnSZeDQogk6Tg6nYhG0q+a5M5q7uExx6JSahVttsOz0GU5TiAGnYXX8S6JvTrYuAq99CHai0qJJopQGkYbkMqPJPyED0Z9zsloshwnkEDYzyutdsuBt9FKNnRppKGIdFEYi0CQNgGK7j1IFCupcln+P4GgNxdNluMEEgmHqSuXkNvoDwQW9IoXXYsxn5igiNlv6YrD24wWNxQUyWqJ5JufHqGOAiBEo5FL0GQ5fomltXQ55ooFyTwjS6xUgNSPpYFv7E5fwuo6ghY3aB9SiaSy/ju0uKPXZh2X/3RUIDtrPj9bozLQxWowpNLegxQcoKHJVoGWRE+QcByaByBNunOiqWndjBZ3mIesfG/dN0fL8BwVSIau331oUkGKUacKNG8OOb60u+vQkzgRNEGdpMdKquDytaJFh0VfejOaxwhEX3ASmlS0OQ6hlXzUCu5tDcJSJC9nnD7u+5C8TEEtAeNKq+0AWnQYdbkk846FFUhjtNFg0ufzOsGqbtmEVvKhqYXV4axBSyIWe2q4t0ArzT0VreRT3bqJV+oFsxfXtbVVsplfrEDUdu80Pum1JA/Y5WtBL/kUWcagFZsNla+iJRGL73b+Ha3YmHWCOoLHlVDYx/s+RKkxsneCrEB02gzq0ysC7QlHItGrs0Cr5lYwgDxVVux8Aj2JWJDGNVw7gsnlCijPm4xe8mlz8IvLUmtM7DKLFYhSruPVk8zuaUQr+Yzsz/0KxydSA5/eRKt9P1qxIS0RUgW7pwEtOtRyLXtnwArEG7TzypPscFWjlXzyMrmn0B9uWouWBFcOUBznF2TxWpAkhGZbJVp0tDgPsDfqrED8QSev76iNZ1hxIpgx8rdoxSYd48aSTW3bNrRic+qgq9li2KkA32sItVzH9uH8eYml1PGq3B6gLAmTKM4eey/n/Qdhc8rEjqUPJN6O64Uh2YecP55XU9m44w3wFIjKwC5J5NFoVKVR6ArYUUqc3uSfYA3InwZzJjyGXmz21X3D/Lub0JPgTpR5sLyJdmxIP/qBBdzLwCYKvvtkpVxjbmnZWyhvtO4tkstVvHJAfAEbWskh01ACv53zPVWhANKvRIIfe49wvw8hkNbbpNFnMvEFHGjRoZCrVKBSFcpIc06zvnCjWqWnDqJ59osZcEhAKyy+jO5/IUwYeh2MLaMrvkJCt+97O5e6jqtRmwPjybqaLOOiUWZp6WFzn1vs/DaAv0StNMCEwdeAUZfH+m5fO9sN2B2nYMoc00AYVXohsy8wAshkzOvggh8PvccWp6bl4StrIMvYHz1u7Kj6hJ19dtV8jiPiUWwZC/dcsh097oTCgajT3TRXZnVUXWQy9PuET5jyXz8aDY3W3eglhsumPgdDi2Yy76scdJpM9r6Db0Dc26uuY94o7h1S+2WfBGeOuRtOHnB5t38n6dz75vfXsBdSfCBlOq+Y9hKM7N998+DK+hXw4dqboZXnWT7hmtPfhlMHk/Zox+dpkGxKUgHk661/pgrqG1p8Ntx6/nL06IhEwuyegFzeRaJhqGnZBG+tuha/mhhM2jx47Bq6kP1OGIHcIFfIddl8Y/hdIuxBiiyj2Pie3IzBpEQkb3HsPvIFlThKck6B383dyPbe6+nvPKn8UriL+TUyHlEIzKzNNuLvSRyEocUz4a55myDXPAhH6Lj9gjWMOEjZ2a5JTKSa4IiS8+DOC9dBef4UHI1NZf23sLHyNfToIJt30uaNNPzMyxgChZYei6rHDScbsMgvtVqmkOvlMiUzv/MiwvbySwe+3f44vPTNBehx47oz3+WUX1KcPRaunvEGety5cvpLpFgZej1DWqBdOYM+LObSKf/m1OmXiH/hWXT1zN5dvRCWbr6PnQVSnyiEIzxrD8iUakbTCl4ZLqTgXjq8QF9v+wss3ULX5mR4v3OYGYv7xeN4dgnDHZK3QnPzP6jgNOo2y1OG3YhWbMz6AmYPRLfU+XbH3xiR/BG9VIdfZRYFMAsssl9HnwrakpTJYHvVx8wa+yH0uEP6HNJATtEumsQ9B3rCkB7bUfTImNJ5aMXm5IFXkkqB6HGDLHloIfFspFh5qsO/mDqz85XLKc5IjyN1BUJqtL6+Yj689t2lOEJHftYItLhD86E36ejaNBBoLkJnj/8LWtwZWnwWWnS8t2YRvPD1ubxDOsSB32eVEUfv7LZPMuCEtH/jE/of78b8XeH+5/P5t5BTQr74g25R2z+LiZzZv/DdweDPqUeOeQDceM4SuOZ0fhX2+Bxd/3T4I7Riw+d+w08Rgfzt9r+hxR1ypMyHuROegDsuXAMlx5eTSjH4fVYjkUiUeWyEeQlEJktdgXRy6uCr4eyT6FPtGzp2ocWVKFXpo60H30OLO3trv0YrNhsqX2HeVbreJ21O+tTp00beBjPH3o1e6sL/sxqNysPhMK8uMuTvFDIti8WcUx+l7p1ObnxpksG2HVqMFjc8AStU1HG/bKtp2UI9q9H0OHf7O2BTJd1R9emj7oB5E/+JXqrDTyBhiITloSjfxaMcDJpstFMXcsI0e/wjsOAsug/x6yuu4PQUbrUfgHdXX48edz5YezMbUhILUvyMz5///poboa7tJ/R6hpzwvLx8LlvehyvzJj4JF09+mroOWbJQyPl1a4ZoKCAPR4IdJASAD52xQ4mk3VENTm8zuLyt7GaQb1eoceWXsjffXCEF8Z5ZMpUtPtbT37nnyBfw1OeTeW1QSZvsp5ZMhkMnaEV9pPVH9s/nG87z1JIpsKPH7q9R5s/fAs8snU6VQEZu3c8cc7RsFCVR9rUiUeCkXUa74zCOJw4SR0ce5nyIhqNeWavt0KlmfcF6XsGKS2fAoSZxgxVJH8Lxg65i9xdDis7EUW6Q5Jl73ySzHt2xn8VYCicPnA9qpZ594pK8iIr6b9kPWDwgl4Cj2WDCDHY1QDbk+2qXM8Kg3Qt1T2HWKBhVOoeEcLPL4mDYBz8dXswrX/v+y/ZBfuYw9LhBhE76B/548B3RT7tIIY97L9mBHndC4WDU5m6cJ2u0VpRn6gv3atVm6rTbF5fNgT21dCHQ8YTMCNef9SFjcV9jfrj2/2DtvhfQk6BhSNFMuG02XTnP73b8HZZsvhc98RlUeBr8ds4P6HEnEPKEHO7GSfKCTHlDJBLkVeNeq2aeeEmERNM+u5SuYwOJRpXgx9iyi9Hixhsrr0yqOAhaFV1r8E7C4WBQFgo3yWWyIf5AmF9xKzOPG+F4Q5Z4y7f/Fb3YjC2fB/o0OFxIRSYPW4hWbDZWvg7bDr2PXvIgcWZ8CEcCrpycofXs7oWZTnj1blYxa/JU4Istf6ToYyGDiUMSm4PQGzl5wBWcT63I6d/H67kX0Ugkeg2vgqHgC7rYOkesQLQqE69jkmxzOVrJZ/Xe59CKDcljl6CjJJd7ACepWukP0ffmSAR6Nb8lViji20l+ZgWi02TwKk+SYxqAVvJpoWhlMLiIV6e5Pg3Z7HKF5r1INHyLaeeaBrGVPViB+EN+XgIx6VOnDivJGOSKludTpS9TkMm9MhSfxjWJwqyPnZTWHYGIjy3///MexG/jtQexUCbvJxLSC4JrQB8JYiZxRBLcIKnOGo6F4JjNbcLrFNCQlzEYLTp8ARdbs5QVSMRsXMMnqYRcnKVSuEmjdS9asZk6/GiPFIkYzBz7B7RiY3Pzq4WbCMilMt+rCF/Ayl6esALJleU6nd4mXnXiy/K69F5PGjQliGhTWPsyY0rnohWb6pYNaCWf0ryJ7GqBFo/f6iuyjGQbyBz93Q5PM6+4hpyM1Pmg0ZycpEugXSpAKrBwJZXqNeeZ+S2v3L62o9PgUYHYPfX/QJMKvdqCVvKJUORAkKw7M7+Kq30OmodJmCIqONHwSW0mWF1HjtY1OiqQUaUXLAkEPdT9nAcWJr/+aickCI+GAh65530NUvOLprUzzUMq0fTLpc9yDIUDkSHFHUdTMo9boHl8HdQH2CT8OfH52NwIhelCyozaxIfrpztZhuPahsckVXrmE4YVz0KLO56AtUEmu/xo/sdxApErlEvQ5Ayp8XTp1P+gl1xo3xy1KjVCZVIZ2limVBHImaPvAh1FJZhOmIf9cVX0jhMI82Hn1Uxh8lD6jLfEQJfnQfIjJE6MWsWz8GaS4VOLgKBW6o4r5PvLJVbP6W0nQMnMIjT1XVOFdMipTzbp+BDJzxwOBi2/+zmPt4ONwerkuE9ITubAzf6gm1eH/VEUpTRTBT71r/oafIuFJxPathidMHvYsCWj7LgMwC6PUKenmVcgzamDr0ErjUiNs4WUJlUOYGggvVz44PQ0dWnE2EUgJn0ufX4iQ6ahH/TPPRU9CYnkkGseDAVZvFpuglGf16XDTxeBOHxtG9Gkhs+xmoREPBldxj0s5pcw+48uzeC7CCTPPGB1MOTjddszupSuB4eERLwh3cj4EA4HIxlGT5drji4CIdjc9dyTK46BBIeRfnjJIkLZKCUd19diQ1u2k2/dsnhg1hXCsBJ+qxibt349qc+A7lG6FYhBk7kSTWqmDufeuCXekFwEGuSy9DuhERuVQocWN3hWso0LpKgETcfjY9FrLN1eknf7p+m1/lfJlIMuFcnMs/BStqWmbTLTF9GQzrgUhCL8GprGg+kjbkWLDrYYoN/TbQPLbgUikxV7XN6WanSpII1eSAuzZOCirF4kpwjC66uoKQVCagknA9J+gW+JH7e/o81kKuz2w9PjfBQF2btoUkPTfy+eMHsntLghLbFio6ZcYtmTlFF4UvllaNETjYZ7/Kz3KBCdyvgm3w0XaSBJk2QTL0jrNZp4LC5dYPs6OsoCF8nIRyf7JCE1Brx+b4+9InoUiFabcaCqedO/0KWCrO3vvXgHmxMsNp4A98zhEspmnX0RmnsFEslLuw+MB/dcsoN6r9RJXfv2pflZ5dvR7UKPAiEMLJhyu8fXcVx0I1eMulyYMfI36IlHVdM6tGKjVZugOPsk9CR+CalKSFMVpM1B36VKKFOH38S7cok34HSW5Iy7EN1uOaFACHqthXcp9ClJOPL9bucTaHGDtB2Q6J7JQ29gfuR+D7L7yFK0xGPCYPqW2p04PHUx22rFFEiHu3YTmtSQ3tukP4OYkMomNA2Bzhr7ByjPm4yeRCfFlrHMup5uBbD8p8fREgdyKV2ez7+qjlZjiVmChdPjwelpOcQsmXjVGd1Vs4Rt8SUmd83bBKW5E9DjRlXzBthXtwx8QSd0OKuZ6ZfZy5BaYTIZe05+sJFXDGfKMiB/6tFjbvIhIIXhLKYydlM+IH8KDC8hR/XcZw+rqw4eeo8uPVco157xDowf9Cv06PD4ra0GrSVmzjWnV8Dt7bhVr83inVf79OdToErEeklnjb0HLpxA3wr5RNzxqpqZmVIn31oo/1pETii5CyAWy7Y9Al9t/RN6iYd0zbrvUv4duPxB991atTFmF9KYSyyCQWd5zhdwcW/U/QsumvwUWuKweT+5FKVLv+1rROP8+pD2amJy0aQn0aInEPT6NSrDM+ieEE4CIXS4qp9GkxpSfZEEMoqFw9sEtRw6vErEB9JktcVeiV7iyTYNgGH9+KdWWN01r8hkMk5BY5wFolWZuDf27oYZI8VtqLJ6T2pUWukLrNghbr90crAiBJ3KtAzNmHAWSLa5bF2H88j36FJDNlOnj7odvcRDGumnUhn+3kp9+3ZYuUs8gZAOx0Iixh2exm0Zxn6c0zk4C+Rnog+iwYuLJz8Do8vmoZd43lgxn230L5EYSO/61767HL3EM7ToLLj2jLcZS8DhQjRM9RmmEgiZRZyeFn4xxcj8af9lywSJgdvfDk9+Pgm+2vpnIH3zJOIDidHbWPka+9q2OsR7AM0/7WW0+FHVsuGxDGPJV+hygnIGATAb8p+3uRt4xxSQgsJihqB4/B2wbNvD8Mq3dC2MJXrm3R9ugHdXL4R252EcSTwk1yPbVIYePW5fa8eA/CkPoMsZaoEQlHL1n9HkBbmhpSmIHA/2HFkKf/t4LGw+8CZ15qEESWcOw0+HP4Snl0xj93diI7QjmEyhvh9NKngv5uyuxi1mQwHvcNhN+9+Ad35YgJ74DCiYBiU5p0COqZwtV0TKFpGlX3fF5MhN+gPvFEEkhUr7C+XRqxq6TRgj3yspAm73NEBt24/Q5jgMTda97IFHsr5/sncVcsDD7JUqTfq8YehSwVsggYB7kkqlF3Q9TkJQSCiKhERPDCk6E26bvQI9fthdDbMyTcXfoksFryUWQa02bHT72t9DlxcLZi6GiUOSN4tIpDZjyi6CRbOEPUC9QecSvuIg8BYIweax3oMmL0hi1VUzXoMhxfxqGUn0Xoqzx8INZ38CGoHV5T2e1sfQ5IUggfTLHlzrDTh51dA6losmPinlh0scx+VTn0eLP4GwdzkpyI4uLwQJhBAJehe5fW2C8izJ02LRrM/Qk+jrXM8svYW20/AFnP5IMCDozo4gWCBGY36TUZeb5fa2d6lrSsPI/rOZpwbv5EWJXsKcUx+HkwZcih4/vAFbo1Zt0ul0mYJb7goWSCdqpe5ackQohGkjboYzR/8ePYm+xqQh18Msnp2hjkUp01wuk8niEs8fP4GoDZtaHPvfRJc38yb9g3cBYon0JdtUDlfOEBZKQmh1HPpOrdavRVcw8UspY/D5HCPkCtV2lVIr+Jr89RVXsDe3Er2focVnwS3nLRPc8SsUDkaikeAE5mG9FYcEE7cZhKDVmvf6Ao756ApiwcwPYIyIkb8SyWFgwWmMOL4RLA6C1XloUTzFQYjrDNKJw938rkmfdyW6vCFRo69+ewnsrJZOuHojRBy/mb0S5HLh4vD6bEv1uqy413CK6wzSidmQ/6v6jl2ccn5PBCllTy6Lxg24AkckegtDi8+G38yJjzia7ZWLEyEOQkJmkE7a7IdWZZsHzEBXAFF47qtzoLKed8SARAqRYx4ID1xWwYhD+OWwzV1bkWXsz68pIQcSKhC/3zWOeRU2qpW6uBTp/XzTH2DFzn+gJ5GOTBm2CK6Y/l92dSCUUDgQjkZC00hcIA7FnYQKhBCIBk5TRhU/xKtp/5q9L8Didf+HnkQ6ceGEvwsuuHAsdnfLuZnG/G/QTQgJ2YMci1qmXt1qq7gWXcFMH3EL3DhrSVIqx0vwZ8HMD+MqjjbboT8kWhyEhM8gnbTaD/0lxzxAUNGHY2no2AWfbvydVLkkxSHJaJdN+Q+U5tGVgj0RNlfdC1mmElGWEaIJhFDVvHFJWd7EuPaKfnvVdbD5QLft5SSSzNiyS2Dh2R+hFx8arHt2FVtGiVYRXVSBEOzu5vfN+ry4ndsGwz62vM+ums9xRCIVGFY8ixHHx7wb23SH29ex1KjLFrVfhegCITi9bZ8atdlxvSbfUPEKLF5/G5tPLZFMZHDplH8JLrLwS7wB5zK9xnweuqKRFIEQnJ72z4w6S1z7IlhdtfD9ridhfcXLEAh5cFRCDEjCGznCPWPM7yDXPAhH40OyxEFImkAI8V5udeLwNMGHa2+BnTVSiIoYDO93Lsyf/iJkGfvjSPxIxrLqWJIqEEJ1y+ZlpbmnJqSx+uJ1t8Gavc+hJ5EITh10NVxzxlvoxRexN+TdkXSBENrsh/+abS6/F904EoUtB96GtXtfELWBT1+AtNYjFfsnDV0A8boEPharq/5Fi6nfzegmjZQQCKHJWnFDXsbglxPxYhNIi7VPN97JzFi8Wy5KMBBhXDz5abZeVWKIQrv90B9zMgf/FQeSSsoIhNDhaZhhUGUuj1fsVnfsqP4EvtzyIDTZ9uKIBBdIQ9bzTv4znDzoCuZDk5iHWCjsD3t81rkZxsIvcSjppJRACIGA+xSnr+W/FlNZwrr8kzwTUk5zfcWrsG7fC9LRcA+Q2XzKsBuZ/26A4uxxIE/Q7E6wuesPGNRZ15DUbRxKCVJOIJ3Ut+98o8gymn8TbI5YXUfg6SVTmTeoDkckCHqNBe6auwlyM+J7ZNsdzbb9XxdkDT0f3ZQiZQVCcHpbPzRqcy5DN2GQOxNy0Uga4ff12C5S1Ht0/7kwbcRNbGvoROP12ZbotJnz4lWFJN6ktEAITk/rVRqV8Q2VUitK6UWXr429aFy/7yXSuBRHezeZhhKYPGwhTB12E5j1BTiaWELhQIR5fW/Pzxya0s0kU14gBL/fOcbmbXo0x1x+QTyS+7lA9imHm9bD7polUFH/LduLrzeRnzkcRpScx/43uOjMhO4vjoW8rh3OmvVmbf7tzH7jRxxOWdJCIJ2QlguBiG+xQWPph0Oi0eY4xPYC31WzlO2bkY4wezoYXToXxg+6mhHIUBwVD6/f1uoLOC+1mPuvxqGUJ60E0onb2+HQa7MSv0DuAY/fCuv2vQhLtwivAigGs8bdzzagMWpzcUR8vAGH1+1oyM/NHe7EobQgLQXi9VrLQa54Tqs2JSWArRN/0AkHGn+Aqub1zN6lFdrsB6G6dTMEkxQoSTpkleZOYE+eTNo8KM2byCyfzgCdOgN/RXLocB5ZaVBn3abVmvfhUNqQlgLppNV2cLxOk3WfQZt1cap8K6Q+sS/ggFbHQbaNWYu9Ety+duYJaic9utmfvQEbYzewbZSjzP9OjIx58udAhr4IdJpM0DIfdrOuAPSaLPYoNi9jMGQY+kGueSD7NbH2aFxgvtel7oDt2VxTmbAWUUkkrQXSidVZe4ZCrnrBpM8Xf2EtACKmCFvwm5EJ83OnWGTkfzLy1sjZzXOiwm8ShcvbVh2J+G7LMJakzI04X3qFQDpxe9tvCkWDD5l1+YU4JCEibl+bVQaqhwy6zH/jkEQqcqBxzZ+jEqJS1bIppe8z+NKrZpBjaXfVnqeIwiMZxn6n4JBEArB7mvYyS8MHswxFn+BQr6LXCqSTDlftbH/QOSfLUPJrjcqow2EJAQSCHr/NXfuxWm3+lBFGfMuWpBi9XiCdMKsAhcfv+G0UQvcYNJZ8HJagwOO3tivkir9rVK7nZLLiPpH032cEciw2T918j98+NVNXfLVOk5GJwxLd4A04nQ5vw8c6ddb3Gfp8wR3EJNKM2rZtn0ei4Z93mhLHEInWt+9YiS9Tn6VPziC/pNladZJOo7s+CrLLDWpLnkKh7JOvSzgSivoC1g7mcbE4FPS8mZ1R3ucT+SWB/AKXq7lArlT/itmGXpxhKJykVGhS52o6AZCwc6encatem7U4HAy+azDk1OOXJBgkgZyAaLReb3OGZ+m0luFuf9tcozbvFLVSJ0peSqIIhvxhp7dlp0mb87HH33EgaNR8nSvLTasAQjGRBEJJu6vqfJ06e3Qo5C2KRsIX6jSWEpUyNWcZMjt4AtYGGcg/Vyu1dR6fdZ/FXCoVMZYQl4ra5fc0deytcHnbPbjDTRpub4e32VZxqLJ+xcPR6Ie9enkoBtIMEmfqO3b3N6iypms1pn5KuVbT6jxYwPw8Rq0yDFLJNWaFXKWSy5UKpULFvPZcX/4oMxuEopFIMByOBIOhSMAZCLkOMsul3bnmgfWhiC/gD7jqvSHnuoLMoYfxN0nEAUkgItLauq8oqlQyglEVMZv/fJlCpQOZjFmfkVavCplc/vP7ESGBvRCOhpkfIBoIRMNRbyjib2XEUe8LRZpKcoZIJVhEAeD/ATsaowCSePdkAAAAAElFTkSuQmCC;" parent="1" vertex="1">
                    <mxGeometry x="880" y="900" width="50" height="50" as="geometry"/>
                </mxCell>
                <mxCell id="Ch8A1ACjPwMTOh7i7YPF-50" value="" style="endArrow=classic;html=1;fillColor=#e1d5e7;strokeColor=#7950ED;strokeWidth=3;" parent="1" edge="1">
                    <mxGeometry width="50" height="50" relative="1" as="geometry">
                        <mxPoint x="360" y="542.13" as="sourcePoint"/>
                        <mxPoint x="480" y="542.13" as="targetPoint"/>
                        <Array as="points"/>
                    </mxGeometry>
                </mxCell>
                <mxCell id="Ch8A1ACjPwMTOh7i7YPF-52" value="app.domain.com" style="pointerEvents=1;shadow=0;dashed=0;html=1;strokeColor=#3700CC;labelPosition=center;verticalLabelPosition=bottom;verticalAlign=top;outlineConnect=0;align=center;shape=mxgraph.office.devices.laptop;fontColor=#ffffff;fillColor=#7950ED;" parent="1" vertex="1">
                    <mxGeometry x="1151" y="932.02" width="95.47" height="55.96" as="geometry"/>
                </mxCell>
                <mxCell id="Ch8A1ACjPwMTOh7i7YPF-53" value="" style="endArrow=classic;html=1;fillColor=#e1d5e7;strokeColor=#7950ED;strokeWidth=3;" parent="1" edge="1">
                    <mxGeometry width="50" height="50" relative="1" as="geometry">
                        <mxPoint x="1140" y="973" as="sourcePoint"/>
                        <mxPoint x="970" y="973" as="targetPoint"/>
                        <Array as="points"/>
                    </mxGeometry>
                </mxCell>
                <mxCell id="Ch8A1ACjPwMTOh7i7YPF-54" value="" style="shape=image;aspect=fixed;image=data:image/png,iVBORw0KGgoAAAANSUhEUgAAAeAAAADwCAYAAADYdbe6AAAAAXNSR0IArs4c6QAAAARnQU1BAACxjwv8YQUAAAAJcEhZcwAADsMAAA7DAcdvqGQAACRWSURBVHhe7d0NfFxlnejx5zlJk/IiLuAKbdIi8tYCBVsRFWyTQpFikxQ+a1hp0vbq9bZ7r6u461W4rlpQd5eue72t7n6Urnv3ljagzYptkiJIkSZVFJCCvLZYRGinBUVUFPuSzHnu/595prZ5mzOTeZ/f9/P5f845z0zOTM7MnP95eV4MAAAAAAAAAAAAAAAAAAAAAAAAAAAAAAAAAAAAAAAAAAAAAAAAAAAAAAAAAAAAAAAAAAAAAAAAAAAAAAAAAAAAAAAAAAAAAAAAAAAAAAAAAAAAAAAAAAAAAAAAAAAAACBXVqxwgZ8FAAAZsn4aWduC2KeNdaeFxv7dHT11r/hiAACQhrTPZp11E2xgl1UZu7OtJXZ9a6ur8g8BAICIMr+cHLiT5PR5Vc3+2BPXLYxd6UsBAEAE476fK2fD06ucubu9Kda9aMFLb/XFAABgDNmrUBWYpiAIn7luwZ7VH7rkV2/wpQAAYATZrdFsXU1Vlf3YwZP7d7Q3711GjWkAAEaWkwRprZssyfjWXdv3Pti+cM8lvhgAAHg5PUO11lzkQvODtpbYhsVNsam+GACAipfzS8RWGdMaWvd0W3PspqUNz0/0DwEAULHydo9W0vBxkolXxE+oeba9ZfcSXwwAQEXKfyUpa6bIy65tb977/SXNuy/wpQAAVJT8J+Ak6+bGXfBoW8ue29qv2fdmXwoAQEUoXAIWNjCBNXaxibsd7c2xG1pbn6zxDwEAUNYKmoD/xJ1orLml9sCJjy9euPt9vhAAgLJVJAnYs+Yc54LNi5pj97a17D3XlwIAUHaKKwF7gTXzTGge024tW1ufe6MvBgCgbBRlAlY2cBO0W8uaAxOfY9hDAEC5KdoEnGStOVmHPaw9EHuobUFsti8GAKCkFX0CPszaWbbK9Omwh0sX7nuLLwUAoCSVTgJOCkxTPAyfbmvZc0tr68vH+1IAAEpK6SVgZc0x1tgbag7GdyS6tXTWPwIAQEkozQTsWePq5F9Y296078dt83e/yxcDAFD0SjoBHxa4i80E+4B2a7m04eVTfSkAAEWrPBKwSAx7aBcPnNC/S4c9/Oj8Z2v9QwAAFJ2yScBJyWEPX605/snFLXtafTEAAEWl7BJwkjXuTGfshvaWvVsWXfXiDF8MAEBRKNsE/Cfucjuh+mFttrRihauA/xcAUAoqIiHJ2XCtNlt6+umnqn0RAAAFxRkhAAAFUPEJmMvSxWIFnwOAilLxO71dj8b66E2rcC6/vOetjY1d3XPmXDTfFwFARaj4BOycpTetApg//64TZs/etLq/P3xGFpsSpQBQObjsl6S9aVUHP9TetD7Q/NIpvhRZtyKYO3fTsv374zt0vOcgMDX+AQCoKCTgI9jABNqbVrWL05tWDjQ0dL1nzpxZDzlnb7XWTfLFAFCRSMAjCczxg71pTTj+CXrTGr+5c3tOa2zs2mCM6wsC+3ZfDAAVjQQ8BjlLOyvZm1b7FfvO98WI6F3v2nBMQ8Omm+Lx+NOy2DrYXTcAYBAJOBJ3uTsmfLStac+t1zXF3uQLMSpn587tXjJxYu2zknNXyFnvsf4BAIBHAo5ITt2qbWCXVRm7s60ldn1Dg6NXrRE0NPS8bc6crvudc2tlq9X7YgDAECTgdAXuJEnGq6a8MfZEe/Ne2q56l1226ZTGxk23SeJ9RM54G3wxAGAUJOCM2WnGuu+2N8W6Fy146a2+sOLMn39X7Zw5m24IQ7tDtsniIKBnMQCIgp3leAWmKQjCZ65bsGd12/xXTvClFWHOnK7m/fv7n5Az3ltk8c8SpQCAKEjA2WBdjXYqYSYceqa9ee+ycu9feu7cTec1NnbdGwSmy1p7li8GAKSBBJxF1rrJkoxv3bV974OLmmOX+uKy0dDQ9abZs7tuDcPgUVmclygFAGSCBJwD1pqLrHHb2lpiGxY3xab64pLV2rqhas6cjdc7Z3ZWVZllcqAxwT8EAMgQCThHtNMJK7krHrhntFvLpQ3PT/QPlZTGxu4rf/nL2ieCIFgVBOYkXwwAGCcScI4Fxh6r3VrGT6h5NjHsYWlIDhNojLtbDiWm+2IAQJaQgPPFmimyude2N8Xub1+w+0JfWnQuuWTjGxgmEAByjwScb4FpdDbYrsMetl+z782+tAgkhgmsrg4YJhAA8oAEXADJYQ/dgNvZ3hy7obX1yYImu7lzv3NJY+PbH9RhAiXxTvbFAIAcIgEXkLXuz4w1t9QcOOmJtpbdC3xx3syb1zVVhwkMw+AHsnhRohQAkA8k4CIgifhsa4KeRc2xe5c07zvPF+dMQ8P9E3WYwEOHnN7nZZhAACgAEnARCayZF3fuUe3WsrX1uTf64qzSYQKN+T3DBAJAgZGAi4wN3AStBFVzYOJzOuxha6ur8g+NiyTeCxsbNw0OEyjnu1N8MQCgQNJOwIG1e2Qn7vwickSS5Mk67GHNgb0PX9uyd44vTtsVV3z7zTpMYDxutstaG30xAKDA0k7A67vr/j2oCs4LnbvHFyGHJBHPrDGuV4c9bG/ed7ovTqm1dUONDhPY3z9hp6yFYQIBoMhktFNet3HyM7d31883oWuRU+HnfTFyKdBOMcKn2lr23PKhS371Bl86osbGjQteflm7j2SYQAAoVuM6K1rfU999qPY30yQJf9w583tfjFyx5hhr7A0HT+p/9APNsSt86WE6WlFj46ZO+Vh7JPme7YsB5IhzLpCYITFP4hqJVj+dKzFT4i0S1f7pwFHGfVmys/P8Qx1ddavj+wemudCtcaEJ/UPIERu4M6qMW+oXD3MunCGPvt8vAsgBTagSmmh7ZPHXEo9L3Ctxp8QGP/2+xHYJvUL4e3nuQxJfl1gmQbM/DMrafcFvbjltb0dP/fIgbt/pQvuALwaAsiHJ8yqZ7JLQRKud50S5xaMjob1DYrnEF621VGLFoBwdiTm7uCX2fjkV/mdrbNGMh3uw9je1esbuFwctao49H1jzFr9YMmRH0NHRXd/uFwfNmbNxbhAEeuRdcsLQLujra77LL6Yk//8smRTrEI97ZSf7Cz+PMiHfuZtk8jmJ8ew3fyzfjXf7eVS4nF4Kab9i33FuYvhJeZkb5KCv4DtLEnDxyiABvyCTojm4G2KV7GT/xs+jDMj37b/JZE1iaVw65Ltx1O8WlSunTVPW3zvp9Y7uupsGgvBsZ9w6XwwAJUOS7ykyWZVYGref+ymQ2wSc9K1N9bs7uuqXhAPhZc5YrbAAAKXiryWy1W3rc34K5CcBJ91+15T7z5w5aaYx4VLnzC99MQAUs2EtDsaBM2AcltcErG6+2Ybru6bc5sKBac64lcbZo+7JAkCxcM5pPYOofadrE8w+iX+WWCnxVYkOifskkiccJGAclvcEnHT75tN+09FVf6M7FF7gQhO58g0A5NHFfprKbyTeYa1tkPikxI0SH9MKVxLzJPQ+8p9L7NUnA6pgCTip4576nR09dQuscVcYZ572xQBQDOr9NJUvS5LVjjdGJY+/IkEbYBxW8ASctK6rfsuxk/a9bbBby9D+zhcDQCFFHZebzoeQtqLsEm3x1XtOHug3n6sK7EfkHWZlPFxFO+DilUE74BUyOSmxlBbtuWhJYnZM2sWg3r/LxP1yprPRz6OEyffsf8vkbxNLY7pQPnNaeCAtRd0naVtTbJa1bpWxdrYvGhcScPFKNwFnSrbbOTLZkVga01OyQz3fz6NCyffl/8jk44mlMZ0l3xftohKIrGguQY+ko6du+/ru+jk67GHoDF37AQDKRlEn4CQd9rB/Yvxc48yNJjR/8MUAAJSskkjAqrNz6v713XUrD7q4th9e54R/CACAklPU94DHct3VL15cFVatltl3JUpS4x5w8SrHe8DyWtqBwyUSF0pMltC2oEcOzq7fRR1UQjtn0Ao82+U1X5Fp2uS1dLCTYxJLI+qXdY959ci/X62g9oI8d/1goSePaW3gsQ7Y/yB/0+/nh5G/179tkPighLaP/a2Wj0aef5xMdPufJaHbTZsDvVmiRuLIIQC1/e0fJV6XeEZCmwL9VNavy+Mm7yPqPeC3S+jYv2Nxqf7vofx213XPlND9lMbQgW10G+gtOu3m8icSj4/1WYxFXk+3r2770cRl3a/5+RHJOrS9c5tEKM/9ymChJ4+9QSZH/gaOdFCer59lSrKe02WiQzzq7zn5/dCpfkd+JfGExO2yvvtlGpmsV9/buRIXSZwmUSdxqoSuV3+v2qHKgxJ3yrp/JtNxKdkEnOBse8uexaELVkoS1Y00JhJw8SqXBCzrP0EmOnKO7oB0p5mOuMQ2CR11Z4O8vi5HIq97g0xuSSyN6EeyPj0YGEb+9j0y+ZSEjm+rifJf5bna//Fh8hzdub81sTSipfI3t/n5w+TvtA/lD0no6FDJv79Anqs7yEHyHN0P6U6vUUIrXOpQk2dIZHqFTrfboxL/KbFWXuslLRyLvId7ZPLexFLO7JP3ogdiY5L3ot8hPRBqlbhUIt2WIL+X0P9HD6K65TW1h65I5LX1e3vUwdcQL8r6NDENI3/7Npno9+j9EhMkNspzr5HpYfKcXpnMSSwNs1WeP9fPH0X+Tg/EdF2XS+gByckSUWgvZB+U9e5OLA4n69Zkq9tav3v6P4x1IJukV2D1d/opWfeYByRjKZlL0COzTru1DA4EZzpnbnbGHvQPAHklP+IaCd35vCihXRGmm3yV7mg1Cd0u8bisL5vjxuoO7Ciy/kYJTfgazRLJ/UHUzieOdLafDpL1HiuhBwV6ZqZdMh6ZvId27fgFiScl/kXiLyX0vY5n36TbUXeqekDygryPz0toQii0Ma9uyHuslfi0zO6R0G2miSqTZph6lqlJUJvC7ZB1Xq2FWVIv6zsqQcny2yX04FmvPlwnkdzWevaYjktlPYevbsj8aRJfkNDvxrMS2r2nHiRFTb5KE/aPZB1HnWTJ8rkSX5LQqxYPS+hvV39vUZKv0oPG5RLfk3VkPFBHiSfghOSwh9YNnC+HJZ2+GMgL+QHqJbctErqDiNpxQyp6Rtgr69azx2x4k6xrsN20TGdIfFdm9fKcnv0OFbXv4yMNJmBZbyDxYZnVHaYmQN02Qw1N8OO+lDcGvaT6WYkt8r5OHCwpnFf9dBh5b/p56+Xjv5fQBJotejDzHVn/HRJ6Zj1emjPO1BlZ3+kS35RZTWBXSQy9oprugZwm7vfKOmdJ6EGoNuv6jMR5EuOhBwLfknXqd/Myic2yrEn9f0qM9+rnOyW+lphNX1kk4KT13VN3dXTVXetCN8+4P13iAnJFfsyTZKId8GelrfoQukP6hrxGlI5DotAzlVtl+pjE/MGSkWWSgM+RdetZp54F/ZvEWGc/Q9ev925zTc8mN8t7LOSZsHbuMozfbj+QyGW78w9I3CevlUnnNUPpAZweXO2U0CsWo93KPEWepwdA6fi6xCMSeiY92r3iTGif3nobRS9Jv08im7dfF/vPMG1llYCTOnrq79v92qRZkoSXy9c7o0otQCryo9PLg3oGMG2wIDd0R/F1ea1svMadEsskUv3u9Wx5aEWfVKZLaBLRCmepDD0z0gScj1YNeolRz3oKZVgClu2sB3BdEvk4O9ckcbu85nj3+3oQp7cXUh3M6OukrJszRC63Q67q+uhv9K8Ss+kpywSsenvtwPruyWsO1obnxOPuK/LrHvAPAdnyUYnRKpRkk96XWpWYHZfj/TQV3aFkcvmwNjGb0lFnwNZarTSk9z3z4VOSgLJxKTYTRyVgeR+6nbXCkybhfLlS4hOJ2YxF/R6pTOoTlKL3+c8zLWWbgJM6O6e+esfm+uuDfitHv+dFrlUKjEV+bJpstMJMvlwpr5lJxa5M5XLHOdIl7nxchlZayUdrvBbC0DNgrXB3WWI2rz4j36V0kuh4VEoC1oOotM+wyz4BJ6377uSfdHZGb9YBpKBNIkaqYDQSvQ3yDxLaxEKb1yRDa3RqO8n9ElEs8tN8yOQ+cFQj7ZSPTMDaXlkrJGmzJq3YdqOEXuLT+5h67/oKH1rT9+8k7pZIpwXESM2NtBavNisZGj+ViOIfJfR9jhVaUe9I6V621KY06yT+l4TWwP2IxOck9DbIPomo9AqANjfKh0pJwCrt20RpnzKXG9oBF4dSawcs64nablQraF0j6xqrBqy+jn5uqRK6XqadKusadr9U1pGqHXBU2lGEXu5eJa9zeFhQWX+qdsBRaWK9SdatNVEPk/VfIBNtI6ufjXYEktY9Yfl77ZhBa85G6Zhnl6x/WLOskch69QBAm6ikop/LqG1Nh5L16metn2eUSkp6AKfJ9tvyGiOeRMj6dD3a/vxLElGa0minL9qe9iiynlTtgKPSjlD+VeJL8jqH6+HI+sdqBxyVdjyiHdc8JaHfE23fno2rQ9peWmvv63dQO8fR2ujzJPS7FcUy+V+1AmJkFXMGPJrAuMg/GuSGc3oG6LT3mpIgOxGtfDVipxZDaK85fyE/ylGTr5LHtUmEJtBU9Gwi3baVUb0soT0+1cv7uVki22Nya5On2bLed0gclXyVlGnvTXdL/EIi7QpZ8jfanlM7EonSKcIZ8hlmq7lYprT5V5TkqwdEl8r/N2bHLPLYIQlNeHqVJMr2mynbIBcVnvT96tn+JHk/N0hkoxKs/t96wHu9xAyJk2W9jRIfkdAOY7RyWVqJ7wh69UmvIOjJzKmyvukSesD8CQmtsKgHx9skokj7sn7FJ+AzZtU1yoHPUpnVHRDySM56w3jcrAnD/jP6+lq0LWGp0Bq/UX5sX5MfcdQd0B0SWhkplfG2iRxKd0BflNAdz2qJrHTheAQ9S1kocbmsW2tJ54ysXw90NiWWxqRX/vJZ8Wkk2o1iFJ+X/0vPyiKR52rnG9rGOxXdBlHfQxTa9aV223mOvIeVElG+y6nsldBkrlcX5kt8ReJJiaMOMGRZz1z1O5wO/V7qFQM9ULhOokNi2EmAlGnXmNqxThRjdeE5oopPwDffbEPtTetgbTW9aeVRGJofVlXZi7dta1m+bdtfpHP/qhjoUXgUQ+/5jUp+6AdkEqXtejabPOn9xDPktT8roZf1skkrHOmBrXY72SWR9llthvRqQhSFqgmdFOWSqW6ztYnZtET9m2xV6tNbR9PkM/5bCb3qM156EKhXY86U9Wky10Scil7Oj9LSRZ+ndQn0e/kNiShXelL18Z2Udq9lFZ+Akzo7T/mD9qYlp2Qz5FtPb1o5EoZOuwa8tq+vefb99zdpg/tSFLUzAx1oIR1RrsK8yU/H42mJy2Tns0Qi2wc/mjS08pKeCd0mEbkf4iyJeiBR6AQc5XPUe9Vj3r4YRdSrSeP9Lun3u0Xe4wIJvWeaLdrftF6NiVo5MXkWHCUB/0Ce+y3//KgyGtgiChLwEHdsnvKzZG9azgz2QYos0Pu8knhvPuEEe25v70I5wMnbGVEuRL1/GGlklyPoWXAq4+2mUO+V6X3YtEaJiUh3mHqpcLnEiL0+5cFRg62MIWqfv7kS5f5rpvUiop6FjucesJ6kXCifc3diEZkgAY9Ce9Pa87u6mfSmNT6SdCXRunXGVJ8tifemnp6WdJNSMUr7Xk9EUQ5Kxtt+8y7ZaebqM3hN1v09P1/sCt0CJMp3KMoB2Uii/t14Dubulc862xX1Kk7FJ+D2lt3amfaIhvamJbtH2hGnxT0mP9K5W7cuXNLb+7589XSUD1F33rvk+OPVqCHP13atqWQyOg6KTzE0AS2G91DRKj4Bhy74Znvz3u8vad6t7RBHlOxNy1bZGc44bfSPMYSheVkS79KtW7e/fevWFm33V6m01yW9zBc10u24HkAJ4xK0sm5u3AWPtrXsua39mn1v9qXDrNs4+ZmOrvqrJGu3GOeyWemgLIShO+icWWltfNr99zffZszN+a6AgzLgnDteolXinyR0BJ+fSDwn8ZLEiFcPkiF/rm1hgZJAAvZsYAJr7GITdzvam2M3tLY+OerZyPqe+u6DE3873SWqykdp+F8JeuTrNKO3t+XG3t5rtDE+kBZJoCdKaA1qrZm9QeKTEtpXsvbYpL1wnSIx0pWDIyNX9+eBrCMBD+NONNbcUnvgxMcXL9yt40aOqLPz/EMdXXWrB/44MN2Fbo0LB7sxqzhhaJ5yLrxi69aW5r6+5lwOrI4yJolXbwHpOMXaOUK+BgoACooEPBqrA4wHmxc1x+5ta9l7ri8d5ptbTtvb0VO/PIjbdzrjfuiLK8FvwzD8+Ouv75vZ23t15A4ngKEk+Wr3mlq3YupgAVAhSMApBNbMk3Pbx65bsGd1a+tzo7b/1NGW5Ix4tjXuWknEL/risiNnvHGtEV5TU3NGX9/Vqx95ZHnOGqmjYtwsUeiuIYG8IwFHYAM3oarKfqzmwMTn2lpi17e2DnbGPwLr1nXVdx4X2umD3Vq6we4Fy0YY6ghAwYxt2xZe/73vzc+kh55Ko/UDtGembEY5tKM+TM5+tdJjvobGA4oKCTgN1pqTrTGrag/EHmpbEJvti4dZ01P3R+3WciAIz5azYe1vt6RJ4v25nPm29PUtnN/X15SvgdPLgfY4dVKWQ4elKyc6vu/ExGwkWtdCK2lpK4SRIht9EQN5QQLOhLWzbJXpa2+KdS9duG/UsYS/tal+d0dX/RJnw7lyNhx1YO+iIWfxv9f7vKeccnB6X18LXc79SSl3o1lsoozfq/5D4myJWjkImSyhg0gMC3lch6wrBVFu3WTa6UrUv4vabSdyhAQ8HoFpiofh020te25pbX151JqbHZumbD1z1qRZcvC+VJJa0R+hJ4cJnDAhnKb3eTs7r+WHerSoTc/oWCM1HdoxFe2T/cOSYH8mEaXD/VIQpRvHTLuKjNpXud7SQAGRgMfLmmOssTfUHIzvaG/ZvUROjkbs3i057GF1cOgcZ9xKeVpRJrUwNA9YG3+nDhO4ZcvVUYYBq0RR+8DVnrAwtijb6EeSeMutmV+U5HeWc6PVNxnTOX6aCvU4CowEnCXWaFOKYG17074ft83fPepltbWbTv9tR1f9jbYqnGGc2eyLCy4M3YvyY9dhAt/T23v1T3wxRhb1zCHquMGVLMqwgFGGaSw1v/DTsegZ8Kh91Y9hnp+movfMUUAk4GwL3MVmgn1Au7Vc2vDyqb50mHUb659d313XJIn7Cjm0f8oXF8IBSbw6TOD0MhgmMF8e99NUrvNTjC7KJeXxDsFYjB7y01Q+I7/PyIMmyHP/XCb/PbGUUtT3gBwhAeeAVcYuHjihf1dbc+ymj85/ttY/NMy6rvotx5+6b6Z2a+nCfA/v5dbF4/FyGiYwX3ZKRPmsZssOcYmfz4j8fSAxU+JtvqjcRNmOp/npmGQbaaLSililIGryu0riy/K/VScWRyfP0a46vyMxan/2R9Dtrt9jFBAJOIckDR8nmXjFqzXHP7m4ZU+rLx5mzZqL+rVby6A6PCMfwx6Gofup7KsGhwnctu2a3b4YEfn7kT9OLKX0H7Jj/KqE1uBNSZ53qsSVEnrms0mKdFD27RLaL3I5inJ5WbfHqL3RyWPah/RfyaxemfjiYGHxe1ji+cRsStrn/GPyP/4PiekSh8+IZb5W4t0Sfy+LeiXt0sEHUvuW/x6jgEjAeWCNO9MZu6G9Ze+WRVe9OOp9wXUb6389OOyhde+QH1SfL86aMLS/lB/d0r6+7bN6e5u3+mJkptNPU9Hf2F9L7JTP9AWJeyQ2HBF3S/RK6NjB2nGLtnHVbhm/INEicZKEeoeflhs9uEjlGIkfyfb5usQnJZZJfFZijcSD8phWFvyaxPkSJcEnPx14IqrzJHSkp6cl4vJ/6+hPWhtfvzMPSHxa4mSJqBg1qgiQgPPKXW4nVG1va9pz63VNsTf5wmHWddU/2tFd36DDHrroR8mjCkNzKDFM4MA5DBOYNd+UeCkxG5n2dfxeCb0akowrJeZI6KXTUW9ViDNlh6uj/ZSbH/lpKlpZa7nEP0ncKvF5CR244WKJdDryKCb/LpHJbSc9A9bvQqb3xu+RA4Co9RiQQyTgPJNfTrUN7LIqY3dqt5YNDaPf29FhDw/Vxs8zztyonWL44rRI8t08YUIVwwRmmezAXpfJZxJLeaE73YsSs2XlXomKvA0i3yG9vZDvWwv6vf1YYhaFRgIulMCdJHvUVVPeGHuivXmvdsc3os7OqfvXd9etPBTGp2u3lnIWFKmWsiTewWEC+/pamu67b8GzvhjZ9X8l7kzM5kXZXYaWJKT1Hb6RWKo88v//m0zWJpZyTvcdy+Q12R8UCRJwwdlpxrrvareWixa8pIOOj6hz89SYdmvZ74J3hsaOetkuDO3vGCYwP2RHpju0donvDRbknl5uLUdfknguMVuRPixxW2I2Z7Tjn/8q39nbE4soBiTgYhGYpiAIn9FhD9vmvzJq5wQbeiY/HPvdpDnBQLDKFx1WXV31bHW1OY9hAvNHdmj7ZdIsoZ9Hru+tR+m2seT4bfiXEr8eLMicbv//J6H32UuG/P8DEktlVhNxLrqH1K48L5XX0P60UURIwMXEuhod9tBWH9rR3rx32YoVbsTPp7fXDuj4w37xsO9/vzmm4ReRJ7JjOyTxNzKrvRZ1SWSzGZl+nlrp6H0SF2hBOZLt94hM5ko8MViQHr2vqWeQM2U9H5TQ+8olNya3vG+tlKXN1VZKjPdgROnIZcskdLvQu10ROtyerFItao49H1gz6ohGBeXcI6Gx19/eXfdDX4Jxcs5p7fNPJJbG9JLstFb7+bTIa2gPaFdLaA1nvWw8WSIVvZytzWm01ruOnKW3GR6Q9xCpFry8pib/xsTSmO6Udf7Mz0cm69cayKn6bX5d1v0vfj4j8jra9/EHJf6LxLslRjtJ0Ipb+rvQZNspr3tUJUVZzzUyGavt9bflb3b5+VHJevSgJ0rfyptlfVnrzEZeV2t2XyahB176HbpQItXgHlrJUhOtbpceiUfkPUWqM5Ikr6vtrfWKTip3y7rTHuFN1r9IJlMSS6P6taw77XoBsm79XafqsOQZWbceJEcm69XmXXp1IpUfyLrT2leTgIs5AQv58J0cGv/n/gH7yTvvmvyCL0YJkY9Qk76GJjCNZPMRvdyobTk1npcf70EtRIJsN+3ZSZtn6bbTJlqaZHWbxWRb7ZFpxZBtoQcieiCn+6qhza50m/xCtkk2zpqRRyTgIk/ASaFxf7TOfqn6tUO3rO09XRvfAwBKGPeAS0Rg7LHarWX8hNqfjTXsIQCgNJCAS4119fKxrW1fEPsHXwIAKEEk4BLlgpQVGQAARYwEDABAAZCAAQAoABIwAAAFQAIGAKAASMAAABQACRgAgAIgAQMAUAAkYAAACoAEDABAAZCAAQAoABIwAAAFQAIGAKAASMAAABQACRgAgAIgAQMAUAAkYAAACoAEDABAAZCAAQAoABIwAAAFQAIGAKAASMAAABQACRgAgAIgAQMAUAAkYAAACoAEDABAAVR8ArbGfNmF9nd+EQCAvKj4BNzRXfdV5/pPd8atNM4e8sUAAOQUl6DF7ZtP+01HV/2N7lB4gQvNXb4YAICcIQEfoeOe+p0dPXULrHFXGGee9sUAAGQdCXgE67rqtxw7ad/bnDEf5/4wACAXSMCjWLPmov6OrrrVQXV4RjzuviJnxHH/EAAA40YCTmHdxvpf37G5/nrnzMXGuW2+GACAcSEBR9TRU7d9fXf9HBO6ltCZX/hiAAAyQgJO0/qe+u7+ifFzjTM3mtD8wRcDAJAWEnAGOjun7l/fXbfyoItPc8atc8I/BABAJCTgcejcPDXW0VW/JKwK3yWLP06UAgCQGgk4C+7YOPWh9V2TLzEmXBo685IvBgBgVCTgrLFufdeU24IDwZnOmZudsQf9AwAADEMCzrL19056vaO77ibrBs53xnT6YgAAjkICzpH13VN3dXTVXetCN884+4QvBgBgEAk4xzp66u/b/dqkWZKElxvjXvHFAIAKRwLOg95eO7C+e/Kag7XhOdqtpTNmwD8EAKhQJOA86uyc+qp2axmGZoYz7m5fDACoQCTgArijp25HR1f9VdqtpXHu574YAFBBSMAFpN1aHpz42+k67KEsvpYoBQBUAhJwgXV2nn9Ihz10Vf3TXOjWuNCE/iEAQBkjAReJju+8ZV9HT/1yV20vdsb90BcDAMoUCbjI3L5x8iNyRjzbGnetMe4FXwwAKDMk4KJk3bqu+s5jQ3vuYLeWzh7wDwAAygQJuIit6an7o3ZraarjZzHsIQCUFxJwCej4zpQ9OuyhCdxlcjb8U18MAChhJOAS0rFpytYzZ02apcMeGmN/6YsBAEC+rFjhOHgCAAAAAAAAAAAAAAAAAAAAAAAAAAAAAAAAAAAAAAAAAAAAAAAAAAAAAAAAAAAAAAAAAAAAAAAAAAAAAAAAAAAAAAAAAAAAAAAAAAAAAAAAAAAAAAAAAAAAAAAAAAAAAABA2TPm/wN96lCiteRB0wAAAABJRU5ErkJggg==;" parent="1" vertex="1">
                    <mxGeometry x="500" y="840" width="80" height="40" as="geometry"/>
                </mxCell>
                <mxCell id="Ch8A1ACjPwMTOh7i7YPF-55" value="" style="shape=image;aspect=fixed;image=data:image/png,iVBORw0KGgoAAAANSUhEUgAAAeAAAADwCAYAAADYdbe6AAAAAXNSR0IArs4c6QAAAARnQU1BAACxjwv8YQUAAAAJcEhZcwAADsMAAA7DAcdvqGQAACRWSURBVHhe7d0NfFxlnejx5zlJk/IiLuAKbdIi8tYCBVsRFWyTQpFikxQ+a1hp0vbq9bZ7r6u461W4rlpQd5eue72t7n6Urnv3ljagzYptkiJIkSZVFJCCvLZYRGinBUVUFPuSzHnu/595prZ5mzOTeZ/f9/P5f845z0zOTM7MnP95eV4MAAAAAAAAAAAAAAAAAAAAAAAAAAAAAAAAAAAAAAAAAAAAAAAAAAAAAAAAAAAAAAAAAAAAAAAAAAAAAAAAAAAAAAAAAAAAAAAAAAAAAAAAAAAAAAAAAAAAAAAAAAAAACBXVqxwgZ8FAAAZsn4aWduC2KeNdaeFxv7dHT11r/hiAACQhrTPZp11E2xgl1UZu7OtJXZ9a6ur8g8BAICIMr+cHLiT5PR5Vc3+2BPXLYxd6UsBAEAE476fK2fD06ucubu9Kda9aMFLb/XFAABgDNmrUBWYpiAIn7luwZ7VH7rkV2/wpQAAYATZrdFsXU1Vlf3YwZP7d7Q3711GjWkAAEaWkwRprZssyfjWXdv3Pti+cM8lvhgAAHg5PUO11lzkQvODtpbYhsVNsam+GACAipfzS8RWGdMaWvd0W3PspqUNz0/0DwEAULHydo9W0vBxkolXxE+oeba9ZfcSXwwAQEXKfyUpa6bIy65tb977/SXNuy/wpQAAVJT8J+Ak6+bGXfBoW8ue29qv2fdmXwoAQEUoXAIWNjCBNXaxibsd7c2xG1pbn6zxDwEAUNYKmoD/xJ1orLml9sCJjy9euPt9vhAAgLJVJAnYs+Yc54LNi5pj97a17D3XlwIAUHaKKwF7gTXzTGge024tW1ufe6MvBgCgbBRlAlY2cBO0W8uaAxOfY9hDAEC5KdoEnGStOVmHPaw9EHuobUFsti8GAKCkFX0CPszaWbbK9Omwh0sX7nuLLwUAoCSVTgJOCkxTPAyfbmvZc0tr68vH+1IAAEpK6SVgZc0x1tgbag7GdyS6tXTWPwIAQEkozQTsWePq5F9Y296078dt83e/yxcDAFD0SjoBHxa4i80E+4B2a7m04eVTfSkAAEWrPBKwSAx7aBcPnNC/S4c9/Oj8Z2v9QwAAFJ2yScBJyWEPX605/snFLXtafTEAAEWl7BJwkjXuTGfshvaWvVsWXfXiDF8MAEBRKNsE/Cfucjuh+mFttrRihauA/xcAUAoqIiHJ2XCtNlt6+umnqn0RAAAFxRkhAAAFUPEJmMvSxWIFnwOAilLxO71dj8b66E2rcC6/vOetjY1d3XPmXDTfFwFARaj4BOycpTetApg//64TZs/etLq/P3xGFpsSpQBQObjsl6S9aVUHP9TetD7Q/NIpvhRZtyKYO3fTsv374zt0vOcgMDX+AQCoKCTgI9jABNqbVrWL05tWDjQ0dL1nzpxZDzlnb7XWTfLFAFCRSMAjCczxg71pTTj+CXrTGr+5c3tOa2zs2mCM6wsC+3ZfDAAVjQQ8BjlLOyvZm1b7FfvO98WI6F3v2nBMQ8Omm+Lx+NOy2DrYXTcAYBAJOBJ3uTsmfLStac+t1zXF3uQLMSpn587tXjJxYu2zknNXyFnvsf4BAIBHAo5ITt2qbWCXVRm7s60ldn1Dg6NXrRE0NPS8bc6crvudc2tlq9X7YgDAECTgdAXuJEnGq6a8MfZEe/Ne2q56l1226ZTGxk23SeJ9RM54G3wxAGAUJOCM2WnGuu+2N8W6Fy146a2+sOLMn39X7Zw5m24IQ7tDtsniIKBnMQCIgp3leAWmKQjCZ65bsGd12/xXTvClFWHOnK7m/fv7n5Az3ltk8c8SpQCAKEjA2WBdjXYqYSYceqa9ee+ycu9feu7cTec1NnbdGwSmy1p7li8GAKSBBJxF1rrJkoxv3bV974OLmmOX+uKy0dDQ9abZs7tuDcPgUVmclygFAGSCBJwD1pqLrHHb2lpiGxY3xab64pLV2rqhas6cjdc7Z3ZWVZllcqAxwT8EAMgQCThHtNMJK7krHrhntFvLpQ3PT/QPlZTGxu4rf/nL2ieCIFgVBOYkXwwAGCcScI4Fxh6r3VrGT6h5NjHsYWlIDhNojLtbDiWm+2IAQJaQgPPFmimyude2N8Xub1+w+0JfWnQuuWTjGxgmEAByjwScb4FpdDbYrsMetl+z782+tAgkhgmsrg4YJhAA8oAEXADJYQ/dgNvZ3hy7obX1yYImu7lzv3NJY+PbH9RhAiXxTvbFAIAcIgEXkLXuz4w1t9QcOOmJtpbdC3xx3syb1zVVhwkMw+AHsnhRohQAkA8k4CIgifhsa4KeRc2xe5c07zvPF+dMQ8P9E3WYwEOHnN7nZZhAACgAEnARCayZF3fuUe3WsrX1uTf64qzSYQKN+T3DBAJAgZGAi4wN3AStBFVzYOJzOuxha6ur8g+NiyTeCxsbNw0OEyjnu1N8MQCgQNJOwIG1e2Qn7vwickSS5Mk67GHNgb0PX9uyd44vTtsVV3z7zTpMYDxutstaG30xAKDA0k7A67vr/j2oCs4LnbvHFyGHJBHPrDGuV4c9bG/ed7ovTqm1dUONDhPY3z9hp6yFYQIBoMhktFNet3HyM7d31883oWuRU+HnfTFyKdBOMcKn2lr23PKhS371Bl86osbGjQteflm7j2SYQAAoVuM6K1rfU999qPY30yQJf9w583tfjFyx5hhr7A0HT+p/9APNsSt86WE6WlFj46ZO+Vh7JPme7YsB5IhzLpCYITFP4hqJVj+dKzFT4i0S1f7pwFHGfVmys/P8Qx1ddavj+wemudCtcaEJ/UPIERu4M6qMW+oXD3MunCGPvt8vAsgBTagSmmh7ZPHXEo9L3Ctxp8QGP/2+xHYJvUL4e3nuQxJfl1gmQbM/DMrafcFvbjltb0dP/fIgbt/pQvuALwaAsiHJ8yqZ7JLQRKud50S5xaMjob1DYrnEF621VGLFoBwdiTm7uCX2fjkV/mdrbNGMh3uw9je1esbuFwctao49H1jzFr9YMmRH0NHRXd/uFwfNmbNxbhAEeuRdcsLQLujra77LL6Yk//8smRTrEI97ZSf7Cz+PMiHfuZtk8jmJ8ew3fyzfjXf7eVS4nF4Kab9i33FuYvhJeZkb5KCv4DtLEnDxyiABvyCTojm4G2KV7GT/xs+jDMj37b/JZE1iaVw65Ltx1O8WlSunTVPW3zvp9Y7uupsGgvBsZ9w6XwwAJUOS7ykyWZVYGref+ymQ2wSc9K1N9bs7uuqXhAPhZc5YrbAAAKXiryWy1W3rc34K5CcBJ91+15T7z5w5aaYx4VLnzC99MQAUs2EtDsaBM2AcltcErG6+2Ybru6bc5sKBac64lcbZo+7JAkCxcM5pPYOofadrE8w+iX+WWCnxVYkOifskkiccJGAclvcEnHT75tN+09FVf6M7FF7gQhO58g0A5NHFfprKbyTeYa1tkPikxI0SH9MKVxLzJPQ+8p9L7NUnA6pgCTip4576nR09dQuscVcYZ572xQBQDOr9NJUvS5LVjjdGJY+/IkEbYBxW8ASctK6rfsuxk/a9bbBby9D+zhcDQCFFHZebzoeQtqLsEm3x1XtOHug3n6sK7EfkHWZlPFxFO+DilUE74BUyOSmxlBbtuWhJYnZM2sWg3r/LxP1yprPRz6OEyffsf8vkbxNLY7pQPnNaeCAtRd0naVtTbJa1bpWxdrYvGhcScPFKNwFnSrbbOTLZkVga01OyQz3fz6NCyffl/8jk44mlMZ0l3xftohKIrGguQY+ko6du+/ru+jk67GHoDF37AQDKRlEn4CQd9rB/Yvxc48yNJjR/8MUAAJSskkjAqrNz6v713XUrD7q4th9e54R/CACAklPU94DHct3VL15cFVatltl3JUpS4x5w8SrHe8DyWtqBwyUSF0pMltC2oEcOzq7fRR1UQjtn0Ao82+U1X5Fp2uS1dLCTYxJLI+qXdY959ci/X62g9oI8d/1goSePaW3gsQ7Y/yB/0+/nh5G/179tkPighLaP/a2Wj0aef5xMdPufJaHbTZsDvVmiRuLIIQC1/e0fJV6XeEZCmwL9VNavy+Mm7yPqPeC3S+jYv2Nxqf7vofx213XPlND9lMbQgW10G+gtOu3m8icSj4/1WYxFXk+3r2770cRl3a/5+RHJOrS9c5tEKM/9ymChJ4+9QSZH/gaOdFCer59lSrKe02WiQzzq7zn5/dCpfkd+JfGExO2yvvtlGpmsV9/buRIXSZwmUSdxqoSuV3+v2qHKgxJ3yrp/JtNxKdkEnOBse8uexaELVkoS1Y00JhJw8SqXBCzrP0EmOnKO7oB0p5mOuMQ2CR11Z4O8vi5HIq97g0xuSSyN6EeyPj0YGEb+9j0y+ZSEjm+rifJf5bna//Fh8hzdub81sTSipfI3t/n5w+TvtA/lD0no6FDJv79Anqs7yEHyHN0P6U6vUUIrXOpQk2dIZHqFTrfboxL/KbFWXuslLRyLvId7ZPLexFLO7JP3ogdiY5L3ot8hPRBqlbhUIt2WIL+X0P9HD6K65TW1h65I5LX1e3vUwdcQL8r6NDENI3/7Npno9+j9EhMkNspzr5HpYfKcXpnMSSwNs1WeP9fPH0X+Tg/EdF2XS+gByckSUWgvZB+U9e5OLA4n69Zkq9tav3v6P4x1IJukV2D1d/opWfeYByRjKZlL0COzTru1DA4EZzpnbnbGHvQPAHklP+IaCd35vCihXRGmm3yV7mg1Cd0u8bisL5vjxuoO7Ciy/kYJTfgazRLJ/UHUzieOdLafDpL1HiuhBwV6ZqZdMh6ZvId27fgFiScl/kXiLyX0vY5n36TbUXeqekDygryPz0toQii0Ma9uyHuslfi0zO6R0G2miSqTZph6lqlJUJvC7ZB1Xq2FWVIv6zsqQcny2yX04FmvPlwnkdzWevaYjktlPYevbsj8aRJfkNDvxrMS2r2nHiRFTb5KE/aPZB1HnWTJ8rkSX5LQqxYPS+hvV39vUZKv0oPG5RLfk3VkPFBHiSfghOSwh9YNnC+HJZ2+GMgL+QHqJbctErqDiNpxQyp6Rtgr69azx2x4k6xrsN20TGdIfFdm9fKcnv0OFbXv4yMNJmBZbyDxYZnVHaYmQN02Qw1N8OO+lDcGvaT6WYkt8r5OHCwpnFf9dBh5b/p56+Xjv5fQBJotejDzHVn/HRJ6Zj1emjPO1BlZ3+kS35RZTWBXSQy9oprugZwm7vfKOmdJ6EGoNuv6jMR5EuOhBwLfknXqd/Myic2yrEn9f0qM9+rnOyW+lphNX1kk4KT13VN3dXTVXetCN8+4P13iAnJFfsyTZKId8GelrfoQukP6hrxGlI5DotAzlVtl+pjE/MGSkWWSgM+RdetZp54F/ZvEWGc/Q9ev925zTc8mN8t7LOSZsHbuMozfbj+QyGW78w9I3CevlUnnNUPpAZweXO2U0CsWo93KPEWepwdA6fi6xCMSeiY92r3iTGif3nobRS9Jv08im7dfF/vPMG1llYCTOnrq79v92qRZkoSXy9c7o0otQCryo9PLg3oGMG2wIDd0R/F1ea1svMadEsskUv3u9Wx5aEWfVKZLaBLRCmepDD0z0gScj1YNeolRz3oKZVgClu2sB3BdEvk4O9ckcbu85nj3+3oQp7cXUh3M6OukrJszRC63Q67q+uhv9K8Ss+kpywSsenvtwPruyWsO1obnxOPuK/LrHvAPAdnyUYnRKpRkk96XWpWYHZfj/TQV3aFkcvmwNjGb0lFnwNZarTSk9z3z4VOSgLJxKTYTRyVgeR+6nbXCkybhfLlS4hOJ2YxF/R6pTOoTlKL3+c8zLWWbgJM6O6e+esfm+uuDfitHv+dFrlUKjEV+bJpstMJMvlwpr5lJxa5M5XLHOdIl7nxchlZayUdrvBbC0DNgrXB3WWI2rz4j36V0kuh4VEoC1oOotM+wyz4BJ6377uSfdHZGb9YBpKBNIkaqYDQSvQ3yDxLaxEKb1yRDa3RqO8n9ElEs8tN8yOQ+cFQj7ZSPTMDaXlkrJGmzJq3YdqOEXuLT+5h67/oKH1rT9+8k7pZIpwXESM2NtBavNisZGj+ViOIfJfR9jhVaUe9I6V621KY06yT+l4TWwP2IxOck9DbIPomo9AqANjfKh0pJwCrt20RpnzKXG9oBF4dSawcs64nablQraF0j6xqrBqy+jn5uqRK6XqadKusadr9U1pGqHXBU2lGEXu5eJa9zeFhQWX+qdsBRaWK9SdatNVEPk/VfIBNtI6ufjXYEktY9Yfl77ZhBa85G6Zhnl6x/WLOskch69QBAm6ikop/LqG1Nh5L16metn2eUSkp6AKfJ9tvyGiOeRMj6dD3a/vxLElGa0minL9qe9iiynlTtgKPSjlD+VeJL8jqH6+HI+sdqBxyVdjyiHdc8JaHfE23fno2rQ9peWmvv63dQO8fR2ujzJPS7FcUy+V+1AmJkFXMGPJrAuMg/GuSGc3oG6LT3mpIgOxGtfDVipxZDaK85fyE/ylGTr5LHtUmEJtBU9Gwi3baVUb0soT0+1cv7uVki22Nya5On2bLed0gclXyVlGnvTXdL/EIi7QpZ8jfanlM7EonSKcIZ8hlmq7lYprT5V5TkqwdEl8r/N2bHLPLYIQlNeHqVJMr2mynbIBcVnvT96tn+JHk/N0hkoxKs/t96wHu9xAyJk2W9jRIfkdAOY7RyWVqJ7wh69UmvIOjJzKmyvukSesD8CQmtsKgHx9skokj7sn7FJ+AzZtU1yoHPUpnVHRDySM56w3jcrAnD/jP6+lq0LWGp0Bq/UX5sX5MfcdQd0B0SWhkplfG2iRxKd0BflNAdz2qJrHTheAQ9S1kocbmsW2tJ54ysXw90NiWWxqRX/vJZ8Wkk2o1iFJ+X/0vPyiKR52rnG9rGOxXdBlHfQxTa9aV223mOvIeVElG+y6nsldBkrlcX5kt8ReJJiaMOMGRZz1z1O5wO/V7qFQM9ULhOokNi2EmAlGnXmNqxThRjdeE5oopPwDffbEPtTetgbTW9aeVRGJofVlXZi7dta1m+bdtfpHP/qhjoUXgUQ+/5jUp+6AdkEqXtejabPOn9xDPktT8roZf1skkrHOmBrXY72SWR9llthvRqQhSFqgmdFOWSqW6ztYnZtET9m2xV6tNbR9PkM/5bCb3qM156EKhXY86U9Wky10Scil7Oj9LSRZ+ndQn0e/kNiShXelL18Z2Udq9lFZ+Akzo7T/mD9qYlp2Qz5FtPb1o5EoZOuwa8tq+vefb99zdpg/tSFLUzAx1oIR1RrsK8yU/H42mJy2Tns0Qi2wc/mjS08pKeCd0mEbkf4iyJeiBR6AQc5XPUe9Vj3r4YRdSrSeP9Lun3u0Xe4wIJvWeaLdrftF6NiVo5MXkWHCUB/0Ce+y3//KgyGtgiChLwEHdsnvKzZG9azgz2QYos0Pu8knhvPuEEe25v70I5wMnbGVEuRL1/GGlklyPoWXAq4+2mUO+V6X3YtEaJiUh3mHqpcLnEiL0+5cFRg62MIWqfv7kS5f5rpvUiop6FjucesJ6kXCifc3diEZkgAY9Ce9Pa87u6mfSmNT6SdCXRunXGVJ8tifemnp6WdJNSMUr7Xk9EUQ5Kxtt+8y7ZaebqM3hN1v09P1/sCt0CJMp3KMoB2Uii/t14Dubulc862xX1Kk7FJ+D2lt3amfaIhvamJbtH2hGnxT0mP9K5W7cuXNLb+7589XSUD1F33rvk+OPVqCHP13atqWQyOg6KTzE0AS2G91DRKj4Bhy74Znvz3u8vad6t7RBHlOxNy1bZGc44bfSPMYSheVkS79KtW7e/fevWFm33V6m01yW9zBc10u24HkAJ4xK0sm5u3AWPtrXsua39mn1v9qXDrNs4+ZmOrvqrJGu3GOeyWemgLIShO+icWWltfNr99zffZszN+a6AgzLgnDteolXinyR0BJ+fSDwn8ZLEiFcPkiF/rm1hgZJAAvZsYAJr7GITdzvam2M3tLY+OerZyPqe+u6DE3873SWqykdp+F8JeuTrNKO3t+XG3t5rtDE+kBZJoCdKaA1qrZm9QeKTEtpXsvbYpL1wnSIx0pWDIyNX9+eBrCMBD+NONNbcUnvgxMcXL9yt40aOqLPz/EMdXXWrB/44MN2Fbo0LB7sxqzhhaJ5yLrxi69aW5r6+5lwOrI4yJolXbwHpOMXaOUK+BgoACooEPBqrA4wHmxc1x+5ta9l7ri8d5ptbTtvb0VO/PIjbdzrjfuiLK8FvwzD8+Ouv75vZ23t15A4ngKEk+Wr3mlq3YupgAVAhSMApBNbMk3Pbx65bsGd1a+tzo7b/1NGW5Ix4tjXuWknEL/risiNnvHGtEV5TU3NGX9/Vqx95ZHnOGqmjYtwsUeiuIYG8IwFHYAM3oarKfqzmwMTn2lpi17e2DnbGPwLr1nXVdx4X2umD3Vq6we4Fy0YY6ghAwYxt2xZe/73vzc+kh55Ko/UDtGembEY5tKM+TM5+tdJjvobGA4oKCTgN1pqTrTGrag/EHmpbEJvti4dZ01P3R+3WciAIz5azYe1vt6RJ4v25nPm29PUtnN/X15SvgdPLgfY4dVKWQ4elKyc6vu/ExGwkWtdCK2lpK4SRIht9EQN5QQLOhLWzbJXpa2+KdS9duG/UsYS/tal+d0dX/RJnw7lyNhx1YO+iIWfxv9f7vKeccnB6X18LXc79SSl3o1lsoozfq/5D4myJWjkImSyhg0gMC3lch6wrBVFu3WTa6UrUv4vabSdyhAQ8HoFpiofh020te25pbX151JqbHZumbD1z1qRZcvC+VJJa0R+hJ4cJnDAhnKb3eTs7r+WHerSoTc/oWCM1HdoxFe2T/cOSYH8mEaXD/VIQpRvHTLuKjNpXud7SQAGRgMfLmmOssTfUHIzvaG/ZvUROjkbs3i057GF1cOgcZ9xKeVpRJrUwNA9YG3+nDhO4ZcvVUYYBq0RR+8DVnrAwtijb6EeSeMutmV+U5HeWc6PVNxnTOX6aCvU4CowEnCXWaFOKYG17074ft83fPepltbWbTv9tR1f9jbYqnGGc2eyLCy4M3YvyY9dhAt/T23v1T3wxRhb1zCHquMGVLMqwgFGGaSw1v/DTsegZ8Kh91Y9hnp+movfMUUAk4GwL3MVmgn1Au7Vc2vDyqb50mHUb659d313XJIn7Cjm0f8oXF8IBSbw6TOD0MhgmMF8e99NUrvNTjC7KJeXxDsFYjB7y01Q+I7/PyIMmyHP/XCb/PbGUUtT3gBwhAeeAVcYuHjihf1dbc+ymj85/ttY/NMy6rvotx5+6b6Z2a+nCfA/v5dbF4/FyGiYwX3ZKRPmsZssOcYmfz4j8fSAxU+JtvqjcRNmOp/npmGQbaaLSililIGryu0riy/K/VScWRyfP0a46vyMxan/2R9Dtrt9jFBAJOIckDR8nmXjFqzXHP7m4ZU+rLx5mzZqL+rVby6A6PCMfwx6Gofup7KsGhwnctu2a3b4YEfn7kT9OLKX0H7Jj/KqE1uBNSZ53qsSVEnrms0mKdFD27RLaL3I5inJ5WbfHqL3RyWPah/RfyaxemfjiYGHxe1ji+cRsStrn/GPyP/4PiekSh8+IZb5W4t0Sfy+LeiXt0sEHUvuW/x6jgEjAeWCNO9MZu6G9Ze+WRVe9OOp9wXUb6389OOyhde+QH1SfL86aMLS/lB/d0r6+7bN6e5u3+mJkptNPU9Hf2F9L7JTP9AWJeyQ2HBF3S/RK6NjB2nGLtnHVbhm/INEicZKEeoeflhs9uEjlGIkfyfb5usQnJZZJfFZijcSD8phWFvyaxPkSJcEnPx14IqrzJHSkp6cl4vJ/6+hPWhtfvzMPSHxa4mSJqBg1qgiQgPPKXW4nVG1va9pz63VNsTf5wmHWddU/2tFd36DDHrroR8mjCkNzKDFM4MA5DBOYNd+UeCkxG5n2dfxeCb0akowrJeZI6KXTUW9ViDNlh6uj/ZSbH/lpKlpZa7nEP0ncKvF5CR244WKJdDryKCb/LpHJbSc9A9bvQqb3xu+RA4Co9RiQQyTgPJNfTrUN7LIqY3dqt5YNDaPf29FhDw/Vxs8zztyonWL44rRI8t08YUIVwwRmmezAXpfJZxJLeaE73YsSs2XlXomKvA0i3yG9vZDvWwv6vf1YYhaFRgIulMCdJHvUVVPeGHuivXmvdsc3os7OqfvXd9etPBTGp2u3lnIWFKmWsiTewWEC+/pamu67b8GzvhjZ9X8l7kzM5kXZXYaWJKT1Hb6RWKo88v//m0zWJpZyTvcdy+Q12R8UCRJwwdlpxrrvareWixa8pIOOj6hz89SYdmvZ74J3hsaOetkuDO3vGCYwP2RHpju0donvDRbknl5uLUdfknguMVuRPixxW2I2Z7Tjn/8q39nbE4soBiTgYhGYpiAIn9FhD9vmvzJq5wQbeiY/HPvdpDnBQLDKFx1WXV31bHW1OY9hAvNHdmj7ZdIsoZ9Hru+tR+m2seT4bfiXEr8eLMicbv//J6H32UuG/P8DEktlVhNxLrqH1K48L5XX0P60UURIwMXEuhod9tBWH9rR3rx32YoVbsTPp7fXDuj4w37xsO9/vzmm4ReRJ7JjOyTxNzKrvRZ1SWSzGZl+nlrp6H0SF2hBOZLt94hM5ko8MViQHr2vqWeQM2U9H5TQ+8olNya3vG+tlKXN1VZKjPdgROnIZcskdLvQu10ROtyerFItao49H1gz6ohGBeXcI6Gx19/eXfdDX4Jxcs5p7fNPJJbG9JLstFb7+bTIa2gPaFdLaA1nvWw8WSIVvZytzWm01ruOnKW3GR6Q9xCpFry8pib/xsTSmO6Udf7Mz0cm69cayKn6bX5d1v0vfj4j8jra9/EHJf6LxLslRjtJ0Ipb+rvQZNspr3tUJUVZzzUyGavt9bflb3b5+VHJevSgJ0rfyptlfVnrzEZeV2t2XyahB176HbpQItXgHlrJUhOtbpceiUfkPUWqM5Ikr6vtrfWKTip3y7rTHuFN1r9IJlMSS6P6taw77XoBsm79XafqsOQZWbceJEcm69XmXXp1IpUfyLrT2leTgIs5AQv58J0cGv/n/gH7yTvvmvyCL0YJkY9Qk76GJjCNZPMRvdyobTk1npcf70EtRIJsN+3ZSZtn6bbTJlqaZHWbxWRb7ZFpxZBtoQcieiCn+6qhza50m/xCtkk2zpqRRyTgIk/ASaFxf7TOfqn6tUO3rO09XRvfAwBKGPeAS0Rg7LHarWX8hNqfjTXsIQCgNJCAS4119fKxrW1fEPsHXwIAKEEk4BLlgpQVGQAARYwEDABAAZCAAQAoABIwAAAFQAIGAKAASMAAABQACRgAgAIgAQMAUAAkYAAACoAEDABAAZCAAQAoABIwAAAFQAIGAKAASMAAABQACRgAgAIgAQMAUAAkYAAACoAEDABAAZCAAQAoABIwAAAFQAIGAKAASMAAABQACRgAgAIgAQMAUAAkYAAACoAEDABAAVR8ArbGfNmF9nd+EQCAvKj4BNzRXfdV5/pPd8atNM4e8sUAAOQUl6DF7ZtP+01HV/2N7lB4gQvNXb4YAICcIQEfoeOe+p0dPXULrHFXGGee9sUAAGQdCXgE67rqtxw7ad/bnDEf5/4wACAXSMCjWLPmov6OrrrVQXV4RjzuviJnxHH/EAAA40YCTmHdxvpf37G5/nrnzMXGuW2+GACAcSEBR9TRU7d9fXf9HBO6ltCZX/hiAAAyQgJO0/qe+u7+ifFzjTM3mtD8wRcDAJAWEnAGOjun7l/fXbfyoItPc8atc8I/BABAJCTgcejcPDXW0VW/JKwK3yWLP06UAgCQGgk4C+7YOPWh9V2TLzEmXBo685IvBgBgVCTgrLFufdeU24IDwZnOmZudsQf9AwAADEMCzrL19056vaO77ibrBs53xnT6YgAAjkICzpH13VN3dXTVXetCN884+4QvBgBgEAk4xzp66u/b/dqkWZKElxvjXvHFAIAKRwLOg95eO7C+e/Kag7XhOdqtpTNmwD8EAKhQJOA86uyc+qp2axmGZoYz7m5fDACoQCTgArijp25HR1f9VdqtpXHu574YAFBBSMAFpN1aHpz42+k67KEsvpYoBQBUAhJwgXV2nn9Ihz10Vf3TXOjWuNCE/iEAQBkjAReJju+8ZV9HT/1yV20vdsb90BcDAMoUCbjI3L5x8iNyRjzbGnetMe4FXwwAKDMk4KJk3bqu+s5jQ3vuYLeWzh7wDwAAygQJuIit6an7o3ZraarjZzHsIQCUFxJwCej4zpQ9OuyhCdxlcjb8U18MAChhJOAS0rFpytYzZ02apcMeGmN/6YsBAEC+rFjhOHgCAAAAAAAAAAAAAAAAAAAAAAAAAAAAAAAAAAAAAAAAAAAAAAAAAAAAAAAAAAAAAAAAAAAAAAAAAAAAAAAAAAAAAAAAAAAAAAAAAAAAAAAAAAAAAAAAAAAAAAAAAAAAAABA2TPm/wN96lCiteRB0wAAAABJRU5ErkJggg==;" parent="1" vertex="1">
                    <mxGeometry x="500" y="140" width="80" height="40" as="geometry"/>
                </mxCell>
            </root>
        </mxGraphModel>
    </diagram>
</mxfile>